<svg viewBox="0 0 1024 1024" xmlns="http://www.w3.org/2000/svg"><defs><style>.cls-1,.cls-3{fill:none;}.cls-2,.cls-8{fill:#80adff;}.cls-10,.cls-3,.cls-7,.cls-8,.cls-9{stroke:#101129;stroke-linecap:round;stroke-linejoin:round;stroke-width:8px;}.cls-4{fill:#ccdeff;}.cls-5,.cls-7{fill:#fff;}.cls-6{fill:#101129;}.cls-9{fill:#ffdc8a;}.cls-10{fill:#81e6c1;}</style></defs><g id="图层_2"><g id="缺省页"><g id="_404"><rect height="1024" width="1024" class="cls-1"></rect><path d="M932,896.1a24.37,24.37,0,1,0,7.46-47.25c-.62,0-1.27,0-2,.08a2.47,2.47,0,0,1-2.44-1.43,25.1,25.1,0,0,0-4-6.09l-1,.06a2.49,2.49,0,0,1-2.44-1.43,23.5,23.5,0,0,0-2-3.4c-6.8-4.82-16-7.69-25.89-7.69-20.57,0-37.31,12.27-37.31,27.36a2.48,2.48,0,0,1-2.49,2.48c-15.08,0-27.36,10.05-27.36,22.39a19,19,0,0,0,2.95,10.09,31.24,31.24,0,0,0,17,4.83Z" class="cls-2"></path><path d="M922,898.59h10a29.85,29.85,0,0,0,0-59.69c-.75,0-1.5,0-2.23.09-5.43-11.64-20.19-20-37.57-20-22,0-39.79,13.36-39.79,29.85-16.48,0-29.84,11.13-29.84,24.87s13.36,24.87,29.84,24.87h49.74" class="cls-3"></path><path d="M278.86,220.57a37.7,37.7,0,0,0,31.3-58.73,37.48,37.48,0,0,0-21-6.41c-.85,0-1.74,0-2.82.12a3.42,3.42,0,0,1-3.36-2,34.8,34.8,0,0,0-5.58-8.4c-.42,0-.86,0-1.35.08a3.42,3.42,0,0,1-3.36-2A33.71,33.71,0,0,0,270,138.6C260.6,132,247.91,128,234.29,128c-28.36,0-51.43,16.92-51.43,37.71a3.43,3.43,0,0,1-3.43,3.43c-20.8,0-37.72,13.85-37.72,30.86a26.29,26.29,0,0,0,4.07,13.91,43,43,0,0,0,23.36,6.66Z" class="cls-2"></path><path d="M265.14,224h13.72a41.15,41.15,0,0,0,0-82.29c-1,0-2.06.06-3.08.13-7.48-16-27.83-27.55-51.78-27.55-30.3,0-54.86,18.42-54.86,41.14-22.72,0-41.14,15.35-41.14,34.28S146.42,224,169.14,224h68.57" class="cls-3"></path><path d="M402.85,817,408,837.76a6.44,6.44,0,0,0,4.71,4.71l20.75,5.11a1.61,1.61,0,0,1,0,3.13l-20.75,5.12a6.44,6.44,0,0,0-4.71,4.71l-5.12,20.74a1.6,1.6,0,0,1-3.12,0l-5.12-20.74a6.44,6.44,0,0,0-4.71-4.71l-20.75-5.12a1.61,1.61,0,0,1,0-3.13l20.75-5.11a6.44,6.44,0,0,0,4.71-4.71L399.73,817A1.61,1.61,0,0,1,402.85,817Z" class="cls-4"></path><path d="M867.2,190.66l5.12,20.75a6.44,6.44,0,0,0,4.71,4.71l20.74,5.12a1.61,1.61,0,0,1,0,3.13L877,229.48a6.44,6.44,0,0,0-4.71,4.71l-5.12,20.75a1.61,1.61,0,0,1-3.13,0L859,234.19a6.44,6.44,0,0,0-4.71-4.71l-20.75-5.11a1.61,1.61,0,0,1,0-3.13l20.75-5.12a6.44,6.44,0,0,0,4.71-4.71l5.11-20.75A1.61,1.61,0,0,1,867.2,190.66Z" class="cls-4"></path><path d="M619.47,129.41l5.87,23.79a7.38,7.38,0,0,0,5.41,5.41l23.8,5.87a1.85,1.85,0,0,1,0,3.59l-23.8,5.87a7.38,7.38,0,0,0-5.41,5.41l-5.87,23.79a1.85,1.85,0,0,1-3.59,0L610,179.35a7.38,7.38,0,0,0-5.41-5.41l-23.8-5.87a1.85,1.85,0,0,1,0-3.59l23.8-5.87A7.38,7.38,0,0,0,610,153.2l5.86-23.79A1.85,1.85,0,0,1,619.47,129.41Z" class="cls-4"></path><path d="M215,700.44a4,4,0,0,1-4-4V655.88a4,4,0,0,0-4-4H71.82a4,4,0,0,1-4-4V604.6L172,358.88a4,4,0,0,1,3.68-2.44H212a4,4,0,0,1,3.69,5.54L116.25,599.32a4,4,0,0,0,3.69,5.54H207a4,4,0,0,0,4-4V504a4,4,0,0,1,4-4h32.69a4,4,0,0,1,4,4v96.83a4,4,0,0,0,4,4h8.12a4,4,0,0,1,4,4v39a4,4,0,0,1-4,4h-8.12a4,4,0,0,0-4,4v40.56a4,4,0,0,1-4,4Z" class="cls-5"></path><path d="M212,360.44h0m0,0L112.56,597.77a8,8,0,0,0,7.38,11.09H207a8,8,0,0,0,8-8V504h32.69v96.83a8,8,0,0,0,8,8h8.12v39h-8.12a8,8,0,0,0-8,8v40.55H215V655.89a8,8,0,0,0-8-8H71.82V605.41l103.82-245H212m0-8H175.64a8,8,0,0,0-7.37,4.88L63.82,603.78v44.11a8,8,0,0,0,8,8H207v40.55a8,8,0,0,0,8,8h32.69a8,8,0,0,0,8-8V655.89h8.12a8,8,0,0,0,8-8v-39a8,8,0,0,0-8-8h-8.12V504a8,8,0,0,0-8-8H215a8,8,0,0,0-8,8v96.83H119.94l99.39-237.33A8,8,0,0,0,212,352.44Z" class="cls-6"></path><path d="M903,700.44a4,4,0,0,1-4-4V655.88a4,4,0,0,0-4-4H759.82a4,4,0,0,1-4-4V604.6L860,358.88a4,4,0,0,1,3.68-2.44H900a4,4,0,0,1,3.69,5.54L804.25,599.32a4,4,0,0,0,3.69,5.54h87a4,4,0,0,0,4-4V504a4,4,0,0,1,4-4h32.69a4,4,0,0,1,4,4v96.83a4,4,0,0,0,4,4h8.12a4,4,0,0,1,4,4v39a4,4,0,0,1-4,4h-8.12a4,4,0,0,0-4,4v40.56a4,4,0,0,1-4,4Z" class="cls-5"></path><path d="M900,360.44h0m0,0L800.56,597.77a8,8,0,0,0,7.38,11.09h87a8,8,0,0,0,8-8V504h32.69v96.83a8,8,0,0,0,8,8h8.12v39h-8.12a8,8,0,0,0-8,8v40.55H903V655.89a8,8,0,0,0-8-8H759.82V605.41l103.82-245H900m0-8H863.64a8,8,0,0,0-7.37,4.88L751.82,603.78v44.11a8,8,0,0,0,8,8H895v40.55a8,8,0,0,0,8,8h32.69a8,8,0,0,0,8-8V655.89h8.12a8,8,0,0,0,8-8v-39a8,8,0,0,0-8-8h-8.12V504a8,8,0,0,0-8-8H903a8,8,0,0,0-8,8v96.83h-87l99.39-237.33A8,8,0,0,0,900,352.44Z" class="cls-6"></path><path d="M583.13,316.54,598,375l-86,54,42,55-58,45,21.61,58.08a1,1,0,0,1-1.7,1L466,529l35-48-64-53,58-50L432,319.74C348,351.9,288.24,433.17,288,528.42,287.69,652.05,388.37,753,512,753S736,652.71,736,529C736,430.15,672,346.27,583.13,316.54Z" class="cls-7"></path><path d="M583.13,316.54,598,375l-86,54,42,55-58,45,20.1,59.71,94,141.7A224,224,0,0,0,736,529C736,430.15,672,346.27,583.13,316.54Z" class="cls-8"></path><circle r="32" cy="491" cx="624" class="cls-9"></circle><circle r="32" cy="491" cx="400" class="cls-10"></circle><path d="M624,297.74a256.06,256.06,0,0,1,32,18.57" class="cls-3"></path><path d="M681.33,336A256.37,256.37,0,0,1,752,438.72" class="cls-3"></path></g></g></g></svg>