<svg viewBox="0 0 1024 1024" xmlns="http://www.w3.org/2000/svg"><defs><style>.cls-1{fill:none;}.cls-2{fill:#ccdeff;}.cls-3{fill:#80adff;}.cls-4{fill:#101129;}.cls-5{fill:#fff;}.cls-6{fill:#ffdc8a;}.cls-7{fill:#81e6c1;}</style></defs><g id="图层_2"><g id="缺省页"><g id="记录"><rect height="1024" width="1024" class="cls-1"></rect><path d="M856.49,129.5l6.34,25.74a8,8,0,0,0,5.85,5.85l25.74,6.35a2,2,0,0,1,0,3.88l-25.74,6.35a8,8,0,0,0-5.85,5.85l-6.34,25.74a2,2,0,0,1-3.89,0l-6.34-25.74a8,8,0,0,0-5.86-5.85l-25.74-6.35a2,2,0,0,1,0-3.88l25.74-6.35a8,8,0,0,0,5.86-5.85l6.34-25.74A2,2,0,0,1,856.49,129.5Z" class="cls-2"></path><path d="M508.62,113.94l-1.95,21.28a6.46,6.46,0,0,0,2.92,6l17.93,11.62a1.61,1.61,0,0,1-1,2.95l-21.28-1.94a6.46,6.46,0,0,0-6,2.91l-11.61,17.93a1.61,1.61,0,0,1-3-1l2-21.28a6.43,6.43,0,0,0-2.91-6l-17.93-11.62a1.61,1.61,0,0,1,1-3l21.27,2a6.47,6.47,0,0,0,6-2.92l11.62-17.93A1.61,1.61,0,0,1,508.62,113.94Z" class="cls-2"></path><path d="M142.36,640.69l16.13,18.46a7.39,7.39,0,0,0,7.29,2.32l23.84-5.7a1.85,1.85,0,0,1,1.64,3.19l-18.45,16.13a7.39,7.39,0,0,0-2.33,7.29l5.71,23.83a1.85,1.85,0,0,1-3.19,1.65l-16.13-18.45a7.4,7.4,0,0,0-7.29-2.33l-23.84,5.7a1.85,1.85,0,0,1-1.65-3.19l18.46-16.13a7.41,7.41,0,0,0,2.33-7.29l-5.71-23.83A1.85,1.85,0,0,1,142.36,640.69Z" class="cls-2"></path><circle r="24" cy="600" cx="856" class="cls-2"></circle><path d="M246.23,219.62c20.78,0,37.68-17.21,37.68-38.36a38.58,38.58,0,0,0-6.41-21.37,37,37,0,0,0-21-6.52c-.85,0-1.75,0-2.82.12a3.42,3.42,0,0,1-3.36-2,35.63,35.63,0,0,0-5.57-8.54l-1.35.08a3.4,3.4,0,0,1-3.36-2,34,34,0,0,0-2.68-4.77c-9.37-6.76-22.05-10.78-35.67-10.78-28.33,0-51.38,17.21-51.38,38.36a3.45,3.45,0,0,1-3.42,3.48c-20.78,0-37.68,14.08-37.68,31.39a27.08,27.08,0,0,0,4.06,14.15,42.5,42.5,0,0,0,23.34,6.77Z" class="cls-3"></path><path d="M246.23,227.11h-13.7a4,4,0,1,1,0-8h13.7c20.46,0,37.1-17,37.1-37.85s-16.64-37.84-37.1-37.84c-.83,0-1.71,0-2.77.11a4,4,0,0,1-3.94-2.32c-7-15.37-26.37-25.69-48.09-25.69-28,0-50.81,17-50.81,37.85a4,4,0,0,1-4,4c-20.46,0-37.1,13.84-37.1,30.87s16.64,30.87,37.1,30.87h68.51a4,4,0,0,1,0,8H136.62c-24.87,0-45.1-17.44-45.1-38.87,0-20.34,18.21-37.07,41.31-38.74,2.52-23.48,27.84-42,58.6-42,23.66,0,45,11.11,54.13,27.9h.67c24.87,0,45.1,20.56,45.1,45.84S271.1,227.11,246.23,227.11Z" class="cls-4"></path><path d="M736,445V285a32,32,0,0,0-32-32H544a64,64,0,0,0-128,0H256a32,32,0,0,0-32,32V861a32,32,0,0,0,32,32H704a32,32,0,0,0,32-32V605" class="cls-5"></path><path d="M704,897H256a36,36,0,0,1-36-36V285a36,36,0,0,1,36-36H412.12a68,68,0,0,1,135.76,0H704a36,36,0,0,1,36,36V445a4,4,0,0,1-8,0V285a28,28,0,0,0-28-28H544a4,4,0,0,1-4-4,60,60,0,0,0-120,0,4,4,0,0,1-4,4H256a28,28,0,0,0-28,28V861a28,28,0,0,0,28,28H704a28,28,0,0,0,28-28V605a4,4,0,0,1,8,0V861A36,36,0,0,1,704,897Z" class="cls-4"></path><rect rx="16" height="128" width="256" y="384" x="288" class="cls-3"></rect><path d="M528,516H304a20,20,0,0,1-20-20V400a20,20,0,0,1,20-20H528a20,20,0,0,1,20,20v96A20,20,0,0,1,528,516ZM304,388a12,12,0,0,0-12,12v96a12,12,0,0,0,12,12H528a12,12,0,0,0,12-12V400a12,12,0,0,0-12-12Z" class="cls-4"></path><rect rx="16" height="64" width="256" y="576" x="288" class="cls-6"></rect><path d="M528,644H304a20,20,0,0,1-20-20V592a20,20,0,0,1,20-20H528a20,20,0,0,1,20,20v32A20,20,0,0,1,528,644ZM304,580a12,12,0,0,0-12,12v32a12,12,0,0,0,12,12H528a12,12,0,0,0,12-12V592a12,12,0,0,0-12-12Z" class="cls-4"></path><polygon points="798.3 348.02 853.72 380.02 675.58 720.58 602.01 752 592.44 672.58 798.3 348.02" class="cls-5"></polygon><path d="M602,756a4,4,0,0,1-4-3.52l-9.57-79.43a4,4,0,0,1,.59-2.62L794.92,345.88a4,4,0,0,1,5.38-1.32l55.42,32a4,4,0,0,1,1.55,5.32L679.12,722.43a3.93,3.93,0,0,1-2,1.82l-73.57,31.43A4.08,4.08,0,0,1,602,756Zm-5.43-82.49,8.76,72.72,67.36-28.77L848.4,381.57,799.62,353.4Z" class="cls-4"></path><circle r="32" cy="800" cx="320" class="cls-7"></circle><path d="M320,836a36,36,0,1,1,36-36A36,36,0,0,1,320,836Zm0-64a28,28,0,1,0,28,28A28,28,0,0,0,320,772Z" class="cls-4"></path><circle r="32" cy="800" cx="448" class="cls-6"></circle><path d="M448,836a36,36,0,1,1,36-36A36,36,0,0,1,448,836Zm0-64a28,28,0,1,0,28,28A28,28,0,0,0,448,772Z" class="cls-4"></path><circle r="32" cy="255.43" cx="480" class="cls-3"></circle><path d="M480,291.43a36,36,0,1,1,36-36A36,36,0,0,1,480,291.43Zm0-64a28,28,0,1,0,28,28A28,28,0,0,0,480,227.43Z" class="cls-4"></path><path d="M688,404a4,4,0,0,1-4-4V368a4,4,0,0,1,8,0v32A4,4,0,0,1,688,404Z" class="cls-4"></path><path d="M688,340a4,4,0,0,1-4-4,28,28,0,0,0-28-28H560a4,4,0,0,1,0-8h96a36,36,0,0,1,36,36A4,4,0,0,1,688,340Z" class="cls-4"></path><path d="M919.51,888.91c20.8,0,37.71-19.73,37.71-44a49,49,0,0,0-6.41-24.51,33.81,33.81,0,0,0-21-7.49c-.85,0-1.75.05-2.83.14a3.37,3.37,0,0,1-3.36-2.3A41.66,41.66,0,0,0,918,801l-1.34.09a3.37,3.37,0,0,1-3.36-2.3,42.66,42.66,0,0,0-2.69-5.47,56.21,56.21,0,0,0-35.7-12.37c-28.36,0-51.43,19.74-51.43,44a3.75,3.75,0,0,1-3.43,4c-20.79,0-37.71,16.15-37.71,36a34.49,34.49,0,0,0,4.06,16.23,38.67,38.67,0,0,0,23.37,7.77Z" class="cls-3"></path><path d="M919.51,896.92H905.79a4,4,0,0,1,0-8h13.72c20.48,0,37.14-19.74,37.14-44s-16.66-44-37.14-44c-.82,0-1.69,0-2.73.13a4,4,0,0,1-4.06-2.5c-7.09-17.73-26.4-29.63-48.07-29.63-28,0-50.86,19.73-50.86,44a4,4,0,0,1-4,4c-20.48,0-37.14,16.14-37.14,36s16.66,36,37.14,36h68.58a4,4,0,0,1,0,8H809.79c-24.89,0-45.14-19.74-45.14-44,0-23,18.2-41.94,41.3-43.85,2.24-26.88,27.71-48.15,58.7-48.15,23.83,0,45.27,12.74,54.34,32h.52c24.89,0,45.14,23.32,45.14,52S944.4,896.92,919.51,896.92Z" class="cls-4"></path></g></g></g></svg>