<svg viewBox="0 0 1024 1024" xmlns="http://www.w3.org/2000/svg"><defs><style>.cls-1,.cls-3{fill:none;}.cls-2{fill:#fff;}.cls-2,.cls-3,.cls-4,.cls-5,.cls-6{stroke:#101129;stroke-linecap:round;stroke-linejoin:round;stroke-width:8px;}.cls-4,.cls-8{fill:#80adff;}.cls-5{fill:#ffdc8a;}.cls-6{fill:#81e6c1;}.cls-7{fill:#ccdeff;}</style></defs><g id="图层_2"><g id="缺省页"><g id="储存"><rect height="1024" width="1024" class="cls-1"></rect><polygon points="864 800 160 800 240 512 784 512 864 800" class="cls-2"></polygon><rect height="128" width="544" y="384" x="240" class="cls-2"></rect><polygon points="864 800 784 512 784 384 896 640 864 800" class="cls-2"></polygon><polygon points="160 800 240 512 240 384 128 640 160 800" class="cls-2"></polygon><path d="M257,608.14l9.27-39.46A32,32,0,0,1,297.42,544H352" class="cls-3"></path><line y2="544" x2="417" y1="544" x1="385" class="cls-3"></line><path d="M656,656v32a32,32,0,0,1-32,32H400a32,32,0,0,1-32-32V656a16,16,0,0,0-16-16H128V800a64,64,0,0,0,64,64H832a64,64,0,0,0,64-64V640H672A16,16,0,0,0,656,656Z" class="cls-4"></path><circle r="32" cy="448" cx="704" class="cls-5"></circle><circle r="32" cy="448" cx="576" class="cls-6"></circle><path d="M488.62,126.4,495,152.14a8,8,0,0,0,5.85,5.85l25.74,6.34a2,2,0,0,1,0,3.89l-25.74,6.34a8,8,0,0,0-5.85,5.86l-6.35,25.74a2,2,0,0,1-3.88,0l-6.35-25.74a8,8,0,0,0-5.85-5.86l-25.74-6.34a2,2,0,0,1,0-3.89L472.54,158a8,8,0,0,0,5.85-5.85l6.35-25.74A2,2,0,0,1,488.62,126.4Z" class="cls-7"></path><path d="M928.2,397.66l5.12,20.75a6.44,6.44,0,0,0,4.71,4.71l20.74,5.12a1.61,1.61,0,0,1,0,3.13L938,436.48a6.44,6.44,0,0,0-4.71,4.71l-5.12,20.75a1.61,1.61,0,0,1-3.13,0L920,441.19a6.44,6.44,0,0,0-4.71-4.71l-20.75-5.11a1.61,1.61,0,0,1,0-3.13l20.75-5.12a6.44,6.44,0,0,0,4.71-4.71l5.11-20.75A1.61,1.61,0,0,1,928.2,397.66Z" class="cls-7"></path><path d="M120.47,372.41l5.87,23.79a7.38,7.38,0,0,0,5.41,5.41l23.8,5.87a1.85,1.85,0,0,1,0,3.59l-23.8,5.87a7.38,7.38,0,0,0-5.41,5.41l-5.87,23.79a1.85,1.85,0,0,1-3.59,0L111,422.35a7.38,7.38,0,0,0-5.41-5.41l-23.8-5.87a1.85,1.85,0,0,1,0-3.59l23.8-5.87A7.38,7.38,0,0,0,111,396.2l5.86-23.79A1.85,1.85,0,0,1,120.47,372.41Z" class="cls-7"></path><circle r="24" cy="248" cx="600" class="cls-7"></circle><path d="M929,271a28.23,28.23,0,0,0,23.44-44,28.1,28.1,0,0,0-15.74-4.8c-.63,0-1.31,0-2.11.08a2.56,2.56,0,0,1-2.52-1.47,26.29,26.29,0,0,0-4.18-6.29l-1,.06a2.56,2.56,0,0,1-2.52-1.48,24.61,24.61,0,0,0-2-3.51c-7-5-16.53-7.94-26.74-7.94-21.24,0-38.52,12.67-38.52,28.25a2.57,2.57,0,0,1-2.57,2.57c-15.57,0-28.25,10.37-28.25,23.11A19.68,19.68,0,0,0,829.32,266a32.21,32.21,0,0,0,17.5,5Z" class="cls-8"></path><path d="M918.72,273.59H929A30.82,30.82,0,0,0,929,212c-.78,0-1.55,0-2.31.1-5.6-12-20.85-20.64-38.78-20.64-22.7,0-41.09,13.8-41.09,30.82-17,0-30.82,11.49-30.82,25.68s13.8,25.68,30.82,25.68h51.36" class="cls-3"></path><path d="M278.86,220.57a37.7,37.7,0,0,0,31.3-58.73,37.48,37.48,0,0,0-21-6.41c-.85,0-1.74,0-2.82.12a3.42,3.42,0,0,1-3.36-2,34.8,34.8,0,0,0-5.58-8.4c-.42,0-.86,0-1.35.08a3.42,3.42,0,0,1-3.36-2A33.71,33.71,0,0,0,270,138.6C260.6,132,247.91,128,234.29,128c-28.36,0-51.43,16.92-51.43,37.71a3.43,3.43,0,0,1-3.43,3.43c-20.8,0-37.72,13.85-37.72,30.86a26.29,26.29,0,0,0,4.07,13.91,43,43,0,0,0,23.36,6.66Z" class="cls-8"></path><path d="M265.14,224h13.72a41.15,41.15,0,0,0,0-82.29c-1,0-2.06.06-3.08.13-7.48-16-27.83-27.55-51.78-27.55-30.3,0-54.86,18.42-54.86,41.14-22.72,0-41.14,15.35-41.14,34.28S146.42,224,169.14,224h68.57" class="cls-3"></path></g></g></g></svg>