<svg viewBox="0 0 1024 1024" xmlns="http://www.w3.org/2000/svg"><defs><style>.cls-1{fill:none;}.cls-2{fill:#ccdeff;}.cls-3{fill:#80adff;}.cls-4{fill:#101129;}.cls-5{fill:#fff;}.cls-6{fill:#81e6c1;}.cls-7{fill:#ffdc8a;}</style></defs><g id="图层_2"><g id="缺省页"><g id="权限不够"><rect height="1024" width="1024" class="cls-1"></rect><path d="M161.31,691.68l6.35,25.74a8,8,0,0,0,5.85,5.85l25.74,6.34a2,2,0,0,1,0,3.89l-25.74,6.34a8,8,0,0,0-5.85,5.85l-6.35,25.75a2,2,0,0,1-3.88,0l-6.35-25.75a8,8,0,0,0-5.85-5.85l-25.74-6.34a2,2,0,0,1,0-3.89l25.74-6.34a8,8,0,0,0,5.85-5.85l6.35-25.74A2,2,0,0,1,161.31,691.68Z" class="cls-2"></path><path d="M763.62,113.94l-2,21.28a6.46,6.46,0,0,0,2.92,6l17.93,11.62a1.61,1.61,0,0,1-1,2.95l-21.28-1.94a6.46,6.46,0,0,0-6,2.91l-11.61,17.93a1.61,1.61,0,0,1-3-1l2-21.28a6.43,6.43,0,0,0-2.91-6l-17.93-11.62a1.61,1.61,0,0,1,1-3l21.27,2a6.47,6.47,0,0,0,6-2.92l11.62-17.93A1.61,1.61,0,0,1,763.62,113.94Z" class="cls-2"></path><path d="M239.36,831.69l16.13,18.46a7.39,7.39,0,0,0,7.29,2.32l23.84-5.7a1.85,1.85,0,0,1,1.64,3.19l-18.45,16.13a7.39,7.39,0,0,0-2.33,7.29l5.71,23.83a1.85,1.85,0,0,1-3.19,1.65l-16.13-18.45a7.4,7.4,0,0,0-7.29-2.33l-23.84,5.7a1.85,1.85,0,0,1-1.65-3.19l18.46-16.13a7.41,7.41,0,0,0,2.33-7.29l-5.71-23.83A1.85,1.85,0,0,1,239.36,831.69Z" class="cls-2"></path><circle r="24" cy="360" cx="872" class="cls-2"></circle><path d="M246.23,203.62c20.78,0,37.68-17.21,37.68-38.36a38.58,38.58,0,0,0-6.41-21.37,37,37,0,0,0-21-6.52c-.85,0-1.75,0-2.82.12a3.42,3.42,0,0,1-3.36-2,35.63,35.63,0,0,0-5.57-8.54l-1.35.08a3.4,3.4,0,0,1-3.36-2,34,34,0,0,0-2.68-4.77c-9.37-6.76-22.05-10.78-35.67-10.78-28.33,0-51.38,17.21-51.38,38.36a3.45,3.45,0,0,1-3.42,3.48c-20.78,0-37.68,14.08-37.68,31.39a27.08,27.08,0,0,0,4.06,14.15,42.5,42.5,0,0,0,23.34,6.77Z" class="cls-3"></path><path d="M246.23,211.11h-13.7a4,4,0,1,1,0-8h13.7c20.46,0,37.1-17,37.1-37.85s-16.64-37.84-37.1-37.84c-.83,0-1.71,0-2.77.11a4,4,0,0,1-3.94-2.32c-7-15.37-26.37-25.69-48.09-25.69-28,0-50.81,17-50.81,37.85a4,4,0,0,1-4,4c-20.46,0-37.1,13.84-37.1,30.87s16.64,30.87,37.1,30.87h68.51a4,4,0,0,1,0,8H136.62c-24.87,0-45.1-17.44-45.1-38.87,0-20.34,18.21-37.07,41.31-38.74,2.52-23.48,27.84-42,58.6-42,23.66,0,45,11.11,54.13,27.9h.67c24.87,0,45.1,20.56,45.1,45.84S271.1,211.11,246.23,211.11Z" class="cls-4"></path><path d="M918.73,892.13c20.79,0,37.71-19.74,37.71-44A49.13,49.13,0,0,0,950,823.61a33.87,33.87,0,0,0-21-7.48c-.85,0-1.74,0-2.82.14a3.39,3.39,0,0,1-3.36-2.3,42.07,42.07,0,0,0-5.58-9.8l-1.35.1a3.39,3.39,0,0,1-3.36-2.3,42,42,0,0,0-2.68-5.47,56.18,56.18,0,0,0-35.71-12.37c-28.35,0-51.42,19.74-51.42,44a3.75,3.75,0,0,1-3.43,4c-20.8,0-37.72,16.15-37.72,36a34.5,34.5,0,0,0,4.07,16.23A38.64,38.64,0,0,0,809,892.13Z" class="cls-3"></path><path d="M918.73,900.13H905a4,4,0,0,1,0-8h13.72c20.48,0,37.14-19.74,37.14-44s-16.66-44-37.14-44c-.81,0-1.68,0-2.74.13a4,4,0,0,1-4-2.5c-7.09-17.72-26.41-29.63-48.07-29.63-28,0-50.86,19.74-50.86,44a4,4,0,0,1-4,4c-20.48,0-37.14,16.15-37.14,36s16.66,36,37.14,36h68.57a4,4,0,0,1,0,8H809c-24.89,0-45.14-19.74-45.14-44,0-23,18.2-41.94,41.3-43.84,2.23-26.89,27.71-48.16,58.7-48.16,23.82,0,45.26,12.75,54.34,32h.52c24.89,0,45.14,23.33,45.14,52S943.62,900.13,918.73,900.13Z" class="cls-4"></path><path d="M512,192c-119.56,28.52-198.83,62.22-261.24,107.2A64.2,64.2,0,0,0,224,351.26V640s48,176,288,256c240-80,288-256,288-256V351.26a64.2,64.2,0,0,0-26.76-52.06C710.83,254.22,631.56,220.52,512,192Z" class="cls-5"></path><path d="M512,900a4,4,0,0,1-1.27-.21C455.6,881.42,406,856.42,363.4,825.49a436.88,436.88,0,0,1-88.56-85c-42-54-54.2-97.58-54.7-99.41a4.09,4.09,0,0,1-.14-1V351.26A68.37,68.37,0,0,1,248.42,296c64.84-46.73,145.84-80,262.65-107.85a3.9,3.9,0,0,1,1.86,0C629.74,216,710.74,249.23,775.58,296A68.37,68.37,0,0,1,804,351.26V640a4.09,4.09,0,0,1-.14,1c-.5,1.83-12.69,45.4-54.7,99.41a436.88,436.88,0,0,1-88.56,85c-42.63,30.93-92.2,55.93-147.34,74.3A3.87,3.87,0,0,1,512,900ZM228,639.43c1.47,4.94,14.6,46.65,53.42,96.45C319.27,784.43,390,850.81,512,891.78c122.25-41,193-107.57,230.84-156.24,38.7-49.74,51.7-91.18,53.16-96.1V351.26a60.35,60.35,0,0,0-25.1-48.81c-63.78-46-143.65-78.78-258.9-106.34-115.25,27.56-195.12,60.38-258.9,106.34A60.35,60.35,0,0,0,228,351.26Z" class="cls-4"></path><path d="M735.66,676a4,4,0,0,1-2.1-.6,4,4,0,0,1-1.3-5.5,340.65,340.65,0,0,0,17.09-31.08,4,4,0,1,1,7.2,3.47,349,349,0,0,1-17.48,31.81A4,4,0,0,1,735.66,676Z" class="cls-4"></path><path d="M638,783.88a4,4,0,0,1-2.47-7.15A436.76,436.76,0,0,0,683.1,733.5a406.76,406.76,0,0,0,27.27-31.94,4,4,0,0,1,6.35,4.88A414.6,414.6,0,0,1,688.9,739a444,444,0,0,1-48.43,44A4,4,0,0,1,638,783.88Z" class="cls-4"></path><path d="M704,480H512V288q160,16,192,96Z" class="cls-3"></path><path d="M704,484H512a4,4,0,0,1-4-4V288a4,4,0,0,1,4.4-4c53.57,5.36,97.1,16.26,129.39,32.4,32.75,16.38,54.93,38.62,65.92,66.09A4,4,0,0,1,708,384v96A4,4,0,0,1,704,484Zm-188-8H700V384.78c-10.34-25.28-31.13-45.87-61.79-61.2S566.58,297.84,516,292.44Z" class="cls-4"></path><path d="M320,480H512V672q-160-16-192-96Z" class="cls-6"></path><path d="M512,676l-.4,0c-53.57-5.36-97.1-16.26-129.39-32.4-32.75-16.38-54.93-38.62-65.92-66.09A4,4,0,0,1,316,576V480a4,4,0,0,1,4-4H512a4,4,0,0,1,4,4V672a4,4,0,0,1-4,4ZM324,575.22c10.34,25.28,31.13,45.87,61.79,61.2S457.42,662.16,508,667.57V484H324Z" class="cls-4"></path><rect rx="72" height="144" width="144" y="304" x="336" class="cls-6"></rect><path d="M408,452a76,76,0,1,1,76-76A76.08,76.08,0,0,1,408,452Zm0-144a68,68,0,1,0,68,68A68.07,68.07,0,0,0,408,308Z" class="cls-4"></path><polygon points="544.89 672.4 703.89 511.4 543.89 511.4 544.89 672.4" class="cls-7"></polygon><path d="M544.89,676.4a4.12,4.12,0,0,1-1.5-.29,4,4,0,0,1-2.5-3.68l-1-161a4,4,0,0,1,4-4h160a4,4,0,0,1,2.85,6.81l-159,161A4,4,0,0,1,544.89,676.4Zm3-161,.91,147.32L694.32,515.4Z" class="cls-4"></path></g></g></g></svg>