<svg viewBox="0 0 1024 1024" xmlns="http://www.w3.org/2000/svg"><defs><style>.cls-1,.cls-7{fill:none;}.cls-2{fill:#ccdeff;}.cls-10,.cls-3{fill:#fff;}.cls-4{fill:#101129;}.cls-5,.cls-8{fill:#ffdc8a;}.cls-6{fill:#80adff;}.cls-10,.cls-7,.cls-8,.cls-9{stroke:#101129;stroke-linecap:round;stroke-linejoin:round;stroke-width:8px;}.cls-9{fill:#81e6c1;}</style></defs><g id="图层_2"><g id="缺省页"><g id="_500"><rect height="1024" width="1024" class="cls-1"></rect><circle r="32" cy="703.17" cx="719.17" class="cls-2"></circle><path d="M654.47,716l5.11-10.21a4,4,0,0,0-.25-4l-30.18-45.27,28.05-28a6,6,0,0,0-.64-9L594.4,572.8a4,4,0,0,0-2.4-.8,4,4,0,0,0-3.33,6.22l29.1,43.64-43,14.35a4,4,0,0,0-2.53,5l15.21,45.66L558.34,716H366a60.07,60.07,0,0,1-60-60V432a60.07,60.07,0,0,1,60-60H659a60.07,60.07,0,0,1,60,60V656a60.07,60.07,0,0,1-60,60Z" class="cls-3"></path><path d="M659,376a56.06,56.06,0,0,1,56,56V656a56.07,56.07,0,0,1-54,56l2.2-4.39a8,8,0,0,0-.5-8L634.29,657,660,631.29A10,10,0,0,0,659,616.22L596.8,569.6a8,8,0,0,0-11.46,10.84l26.19,39.28-38.06,12.69a8,8,0,0,0-5.06,10.12l14.44,43.31L556.69,712H366a56.06,56.06,0,0,1-56-56V432a56.06,56.06,0,0,1,56-56H659m0-8H366a64,64,0,0,0-64,64V656a64,64,0,0,0,64,64H559.17a2,2,0,0,0,1.42-.59l30.54-30.54a2,2,0,0,0,.48-2L576,640l45.52-15.17a2,2,0,0,0,1-3L592,576l62.16,46.62a2,2,0,0,1,.21,3l-29.21,29.21a2,2,0,0,0-.25,2.52L656,704l-6.55,13.11a2,2,0,0,0,1.79,2.89H659a64,64,0,0,0,64-64V432a64,64,0,0,0-64-64Z" class="cls-4"></path><path d="M384,512a175.36,175.36,0,0,0-74,16.28V654a58,58,0,0,0,58,58H558.36A176,176,0,0,0,384,512Z" class="cls-5"></path><path d="M932,896.1a24.37,24.37,0,1,0,7.46-47.25c-.62,0-1.27,0-2,.08a2.47,2.47,0,0,1-2.44-1.43,25.1,25.1,0,0,0-4-6.09l-1,.06a2.49,2.49,0,0,1-2.44-1.43,23.5,23.5,0,0,0-2-3.4c-6.8-4.82-16-7.69-25.89-7.69-20.57,0-37.31,12.27-37.31,27.36a2.48,2.48,0,0,1-2.49,2.48c-15.08,0-27.36,10.05-27.36,22.39a19,19,0,0,0,2.95,10.09,31.24,31.24,0,0,0,17,4.83Z" class="cls-6"></path><path d="M922,898.59h10a29.85,29.85,0,0,0,0-59.69c-.75,0-1.5,0-2.23.09-5.43-11.64-20.19-20-37.57-20-22,0-39.79,13.36-39.79,29.85-16.48,0-29.84,11.13-29.84,24.87s13.36,24.87,29.84,24.87h49.74" class="cls-7"></path><path d="M294.86,234.57a37.7,37.7,0,0,0,31.3-58.73,37.48,37.48,0,0,0-21-6.41c-.85,0-1.74,0-2.82.12a3.42,3.42,0,0,1-3.36-2,34.8,34.8,0,0,0-5.58-8.4c-.42,0-.86,0-1.35.08a3.42,3.42,0,0,1-3.36-2A33.71,33.71,0,0,0,286,152.6C276.6,146,263.91,142,250.29,142c-28.36,0-51.43,16.92-51.43,37.71a3.43,3.43,0,0,1-3.43,3.43c-20.8,0-37.72,13.85-37.72,30.86a26.29,26.29,0,0,0,4.07,13.91,43,43,0,0,0,23.36,6.66Z" class="cls-6"></path><path d="M281.14,238h13.72a41.15,41.15,0,0,0,0-82.29c-1,0-2.06.06-3.08.13-7.48-16-27.83-27.55-51.78-27.55-30.3,0-54.86,18.42-54.86,41.14-22.72,0-41.14,15.35-41.14,34.28S162.42,238,185.14,238h68.57" class="cls-7"></path><path d="M386.85,766.66,392,787.4a6.45,6.45,0,0,0,4.71,4.72l20.75,5.11a1.61,1.61,0,0,1,0,3.13l-20.75,5.11a6.44,6.44,0,0,0-4.71,4.72l-5.12,20.74a1.61,1.61,0,0,1-3.12,0l-5.12-20.74a6.44,6.44,0,0,0-4.71-4.72l-20.75-5.11a1.61,1.61,0,0,1,0-3.13l20.75-5.11a6.45,6.45,0,0,0,4.71-4.72l5.12-20.74A1.6,1.6,0,0,1,386.85,766.66Z" class="cls-2"></path><path d="M851.2,113.66l5.12,20.75a6.44,6.44,0,0,0,4.71,4.71l20.74,5.12a1.61,1.61,0,0,1,0,3.13L861,152.48a6.44,6.44,0,0,0-4.71,4.71l-5.12,20.75a1.61,1.61,0,0,1-3.13,0L843,157.19a6.44,6.44,0,0,0-4.71-4.71l-20.75-5.11a1.61,1.61,0,0,1,0-3.13l20.75-5.12a6.44,6.44,0,0,0,4.71-4.71l5.11-20.75A1.61,1.61,0,0,1,851.2,113.66Z" class="cls-2"></path><path d="M603.08,133.34l5.87,23.8a7.38,7.38,0,0,0,5.41,5.41l23.79,5.87a1.85,1.85,0,0,1,0,3.59l-23.79,5.86a7.38,7.38,0,0,0-5.41,5.41l-5.87,23.8a1.85,1.85,0,0,1-3.59,0l-5.87-23.8a7.38,7.38,0,0,0-5.41-5.41L564.42,172a1.85,1.85,0,0,1,0-3.59l23.79-5.87a7.38,7.38,0,0,0,5.41-5.41l5.87-23.8A1.85,1.85,0,0,1,603.08,133.34Z" class="cls-2"></path><circle r="32" cy="528" cx="608" class="cls-8"></circle><circle r="32" cy="528" cx="416" class="cls-9"></circle><path d="M306,444V432a60.07,60.07,0,0,1,60-60H659a60.07,60.07,0,0,1,60,60v12Z" class="cls-6"></path><path d="M659,376a56.06,56.06,0,0,1,56,56v8H310v-8a56.06,56.06,0,0,1,56-56H659m0-8H366a64,64,0,0,0-64,64v16H723V432a64,64,0,0,0-64-64Z" class="cls-4"></path><circle r="16" cy="406" cx="352" class="cls-3"></circle><circle r="16" cy="406" cx="395" class="cls-3"></circle><circle r="16" cy="406" cx="440" class="cls-3"></circle><path d="M115.14,709.17a86.14,86.14,0,0,1-33.93-30.52q-13.06-20-17.46-48.1v-.24h42.48v.24q2.94,23.21,17.82,35.89t38.82,12.7q27.34,0,42.36-16.6t15-46.88V574.89q0-29.53-13.68-45.78t-38.81-16.23a60.16,60.16,0,0,0-31.74,9q-14.9,9-26.37,26.12H71.56V361H252.47v40H114v93.26a85.54,85.54,0,0,1,25.52-16.23,77.49,77.49,0,0,1,29.66-5.74q29.53,0,50.66,12t32,35q10.86,23.07,10.87,55.54v40.77q0,33-11.72,56.27a80.67,80.67,0,0,1-34.18,35.53q-22.47,12.21-54,12.2Q136,719.66,115.14,709.17Z" class="cls-10"></path><path d="M777.73,692.45Q752,665.84,752,618.23V456.85q0-47.85,25.88-74.34T853.29,356q49.8,0,75.56,26.37t25.76,74.46V618.23q0,47.85-25.88,74.34t-75.44,26.49Q803.48,719.06,777.73,692.45Zm120.11-29.18q14.28-15.75,14.28-45V456.85q0-29.53-14.28-45.16t-44.55-15.63q-30.28,0-44.56,15.63t-14.28,45.16V618.23q0,29.29,14.28,45T853.29,679Q883.56,679,897.84,663.27Z" class="cls-10"></path><circle r="32" cy="864" cx="144" class="cls-2"></circle><path d="M736,388a4,4,0,0,1-4-4,44.05,44.05,0,0,0-44-44H624a4,4,0,0,1,0-8h64a52.06,52.06,0,0,1,52,52A4,4,0,0,1,736,388Z" class="cls-4"></path><path d="M592,340H544a4,4,0,0,1,0-8h48a4,4,0,0,1,0,8Z" class="cls-4"></path></g></g></g></svg>