<svg viewBox="0 0 1024 1024" xmlns="http://www.w3.org/2000/svg"><defs><style>.cls-1{fill:none;}.cls-2{fill:#ccdeff;}.cls-3{fill:#80adff;}.cls-4{fill:#101129;}.cls-5{fill:#fff;}.cls-6{fill:#81e6c1;}.cls-7{fill:#ffdc8a;}</style></defs><g id="图层_2"><g id="缺省页"><g id="错误"><rect height="1024" width="1024" class="cls-1"></rect><path d="M616.49,222.5l6.34,25.74a8,8,0,0,0,5.85,5.85l25.74,6.35a2,2,0,0,1,0,3.88l-25.74,6.35a8,8,0,0,0-5.85,5.85l-6.34,25.74a2,2,0,0,1-3.89,0l-6.34-25.74a8,8,0,0,0-5.86-5.85l-25.74-6.35a2,2,0,0,1,0-3.88l25.74-6.35a8,8,0,0,0,5.86-5.85l6.34-25.74A2,2,0,0,1,616.49,222.5Z" class="cls-2"></path><path d="M155.62,418.94l-2,21.27a6.47,6.47,0,0,0,2.92,6l17.93,11.62a1.61,1.61,0,0,1-1,2.95l-21.28-1.95a6.48,6.48,0,0,0-6,2.92l-11.61,17.93a1.61,1.61,0,0,1-3-1l1.95-21.28a6.46,6.46,0,0,0-2.91-6l-17.93-11.61a1.61,1.61,0,0,1,1-3l21.27,1.95a6.44,6.44,0,0,0,6-2.91l11.62-17.93A1.61,1.61,0,0,1,155.62,418.94Z" class="cls-2"></path><path d="M430.36,144.69l16.13,18.46a7.39,7.39,0,0,0,7.29,2.32l23.84-5.7a1.85,1.85,0,0,1,1.64,3.19l-18.45,16.13a7.39,7.39,0,0,0-2.33,7.29l5.71,23.83a1.85,1.85,0,0,1-3.19,1.65l-16.13-18.45a7.4,7.4,0,0,0-7.29-2.33l-23.84,5.7a1.85,1.85,0,0,1-1.65-3.19l18.46-16.13a7.41,7.41,0,0,0,2.33-7.29l-5.71-23.83A1.85,1.85,0,0,1,430.36,144.69Z" class="cls-2"></path><circle r="24" cy="703.7" cx="920" class="cls-2"></circle><path d="M246.23,284.62c20.78,0,37.68-17.21,37.68-38.36a38.58,38.58,0,0,0-6.41-21.37,37,37,0,0,0-21-6.52c-.85,0-1.75,0-2.82.12a3.42,3.42,0,0,1-3.36-2,35.63,35.63,0,0,0-5.57-8.54l-1.35.08a3.4,3.4,0,0,1-3.36-2,34,34,0,0,0-2.68-4.77c-9.37-6.76-22.05-10.78-35.67-10.78-28.33,0-51.38,17.21-51.38,38.36a3.45,3.45,0,0,1-3.42,3.48c-20.78,0-37.68,14.08-37.68,31.39a27.08,27.08,0,0,0,4.06,14.15,42.5,42.5,0,0,0,23.34,6.77Z" class="cls-3"></path><path d="M246.23,292.11h-13.7a4,4,0,1,1,0-8h13.7c20.46,0,37.1-17,37.1-37.85s-16.64-37.84-37.1-37.84c-.83,0-1.71,0-2.77.11a4,4,0,0,1-3.94-2.32c-7-15.37-26.37-25.69-48.09-25.69-28,0-50.81,17-50.81,37.85a4,4,0,0,1-4,4c-20.46,0-37.1,13.84-37.1,30.87s16.64,30.87,37.1,30.87h68.51a4,4,0,0,1,0,8H136.62c-24.87,0-45.1-17.44-45.1-38.87,0-20.34,18.21-37.07,41.31-38.74,2.52-23.48,27.84-42,58.6-42,23.66,0,45,11.11,54.13,27.9h.67c24.87,0,45.1,20.56,45.1,45.84S271.1,292.11,246.23,292.11Z" class="cls-4"></path><path d="M887.51,219.91c20.8,0,37.71-19.73,37.71-44a49,49,0,0,0-6.41-24.51,33.81,33.81,0,0,0-21-7.49c-.85,0-1.75.05-2.83.14a3.37,3.37,0,0,1-3.36-2.3A41.66,41.66,0,0,0,886,132l-1.34.09a3.37,3.37,0,0,1-3.36-2.3,42.66,42.66,0,0,0-2.69-5.47,56.21,56.21,0,0,0-35.7-12.37c-28.36,0-51.43,19.74-51.43,44a3.75,3.75,0,0,1-3.43,4c-20.79,0-37.71,16.15-37.71,36a34.49,34.49,0,0,0,4.06,16.23,38.67,38.67,0,0,0,23.37,7.77Z" class="cls-3"></path><path d="M887.51,227.91H873.79a4,4,0,0,1,0-8h13.72c20.48,0,37.14-19.73,37.14-44s-16.66-44-37.14-44c-.81,0-1.68.05-2.73.14a4,4,0,0,1-4.06-2.5c-7.09-17.73-26.4-29.64-48.07-29.64-28,0-50.86,19.74-50.86,44a4,4,0,0,1-4,4c-20.48,0-37.14,16.15-37.14,36s16.66,36,37.14,36h68.58a4,4,0,0,1,0,8H777.79c-24.89,0-45.14-19.73-45.14-44,0-23,18.2-41.93,41.3-43.84,2.24-26.88,27.71-48.16,58.7-48.16,23.82,0,45.27,12.75,54.34,32h.52c24.89,0,45.14,23.33,45.14,52S912.4,227.91,887.51,227.91Z" class="cls-4"></path><path d="M424.43,866.32,201.28,846.8a32,32,0,0,1-29.09-34.67l39.05-446.3a32,32,0,0,1,34.66-29.08l223.15,19.52L388.56,542,515.28,745.78Z" class="cls-5"></path><path d="M424.43,870.32a2.06,2.06,0,0,1-.35,0L200.93,850.78a36,36,0,0,1-32.72-39l39-446.29a36,36,0,0,1,39-32.73L469.4,352.28a4,4,0,0,1,3.09,1.94,4,4,0,0,1,.23,3.64L393.06,541.63l125.62,202a4,4,0,0,1-.21,4.52L427.62,868.73A4,4,0,0,1,424.43,870.32ZM243.09,340.62a28,28,0,0,0-27.87,25.56l-39,446.3a28,28,0,0,0,25.45,30.33l220.94,19.33,87.86-116.58L385.16,544.07a4,4,0,0,1-.27-3.7l78.28-180.6-217.61-19C244.73,340.66,243.91,340.62,243.09,340.62Z" class="cls-4"></path><path d="M848.67,845.38l-302.84,26.5,68.54-134.49L454.18,558.67l47-196.84,302.84-26.5a32,32,0,0,1,34.67,29.09l39,446.3A32,32,0,0,1,848.67,845.38Z" class="cls-5"></path><path d="M545.83,875.88a4,4,0,0,1-3.56-5.82l67.29-132L451.2,561.34a4,4,0,0,1-.91-3.59l47-196.85a4,4,0,0,1,3.55-3.06L803.7,331.35a36,36,0,0,1,39,32.72l39,446.3a36,36,0,0,1-32.73,39L546.18,875.86ZM458.56,557.57,617.35,734.72a4,4,0,0,1,.58,4.49l-65.26,128L848.32,841.4a28,28,0,0,0,25.46-30.33l-39-446.3a28,28,0,0,0-30.33-25.45l-300,26.24Z" class="cls-4"></path><path d="M206,425.61,430.6,445.26l37.9-89L245.9,336.75a32,32,0,0,0-34.66,29.08Z" class="cls-3"></path><path d="M430.6,449.26l-.35,0L205.66,429.59a4,4,0,0,1-2.72-1.41,4,4,0,0,1-.92-2.92l5.23-59.77a36,36,0,0,1,39-32.73l222.6,19.48a4,4,0,0,1,3.33,5.55l-37.9,89A4,4,0,0,1,430.6,449.26ZM210.34,422l217.72,19,34.6-81.29-217.1-19a28,28,0,0,0-30.34,25.45Z" class="cls-4"></path><path d="M478.23,456.19l365.72-32-5.23-59.77a32,32,0,0,0-34.67-29.09l-303,26.51Z" class="cls-3"></path><path d="M478.22,460.19a4,4,0,0,1-3.88-4.94L497.2,360.9a4,4,0,0,1,3.54-3l303-26.5a36,36,0,0,1,39,32.72l5.23,59.77a4,4,0,0,1-3.64,4.34l-365.72,32Zm26.08-94.62-20.88,86.15,356.19-31.16-4.88-55.79a28,28,0,0,0-30.33-25.45Z" class="cls-4"></path><path d="M384.89,540.37l12.89-29.73L264.83,499,262,530.89l122.54,10.72A4.18,4.18,0,0,1,384.89,540.37Z" class="cls-6"></path><polygon points="446.94 643.43 253.68 626.53 250.89 658.4 468.06 677.4 446.94 643.43" class="cls-6"></polygon><polygon points="487.87 775.5 242.52 754.04 239.73 785.92 465.15 805.64 487.87 775.5" class="cls-7"></polygon><polygon points="458.56 557.57 459.16 558.24 788.9 529.39 786.12 497.51 466.22 525.5 458.56 557.57" class="cls-6"></polygon><polygon points="542.59 651.32 565.96 677.38 800.06 656.9 797.27 625.02 542.25 647.34 542.59 651.32" class="cls-6"></polygon><polygon points="584.8 804.23 811.22 784.42 808.43 752.54 601.93 770.6 584.8 804.23" class="cls-7"></polygon><circle r="24" cy="386.85" cx="777.44" class="cls-7"></circle><path d="M777.39,414.85a28,28,0,1,1,2.49-.11C779.05,414.81,778.21,414.85,777.39,414.85Zm.06-48c-.58,0-1.17,0-1.76.07a20,20,0,1,0,21.67,18.18h0A20,20,0,0,0,777.45,366.85Z" class="cls-4"></path><path d="M899.55,484a4,4,0,0,1-4-3.56l-3.56-32a4,4,0,1,1,8-.88l3.55,32A4,4,0,0,1,900,484Z" class="cls-4"></path><path d="M917.33,644a4,4,0,0,1-4-3.56l-14.22-128a4,4,0,1,1,8-.88l14.22,128a4,4,0,0,1-3.54,4.42Z" class="cls-4"></path></g></g></g></svg>