<svg data-noselect="" viewBox="26.86599731445 -62.855113277061264 960.63403606415 720.4755270481126" width="800" height="600" ref="svg_canvas" preserveAspectRatio="none" version="1.1" xmlns="http://www.w3.org/2000/svg" style="background: #ffffff;">
    <defs></defs>
    <g id="shape_Ocg836teG7" class="" ref="shape_Ocg836teG7" key="shape_Ocg836teG7" transform="translate(261.02599620356,189.20324707031) rotate(9,-77.079999444556,108.17940317669) scale(-1,1)" style="cursor:default;display:inline;opacity:1;" filter="">
            <g style="display:inline"><rect fill="rgba(0,0,0,0)" width="174.15999888911" height="236.35880635337" x="-10" y="-10"></rect><svg version="1.1" id="图层_1" xmlns="http://www.w3.org/2000/svg" xmlns:xlink="http://www.w3.org/1999/xlink" x="0px" y="0px" viewBox="0 0 182 283.465" style="enable-background:new 0 0 182 283.465;" xml:space="preserve" width="154.15999888911" height="216.35880635337" preserveAspectRatio="none" class="style-removed" data-parent="shape_Ocg836teG7">
<path d="M84.368,281.437c64.484-31.172,95.125-99.889,79.981-164.926
	c-8.456-36.314-28.403-65.291-59.068-86.491C74.588,8.8,40.379,1.256,3.5,5.288c44.336-8.561,85.32-0.647,120.427,28.308
	c45.597,37.607,63.153,86.65,50.659,144.419C163.681,228.433,131.79,262.257,84.368,281.437z" fill="#000000" stroke-width="0"></path>
</svg></g>
        </g><g id="shape_KNAY7GUCmH" class="" ref="shape_KNAY7GUCmH" key="shape_KNAY7GUCmH" transform="translate(125,267.83856582642) rotate(0,156,61.358448110667) scale(1,1)" style="cursor:default;display:inline;opacity:1;" filter="">
            <g style="display:inline"><rect fill="rgba(0,0,0,0)" width="332" height="142.71689622133" x="-10" y="-10"></rect><svg version="1.1" id="图层_1" xmlns="http://www.w3.org/2000/svg" xmlns:xlink="http://www.w3.org/1999/xlink" x="0px" y="0px" width="312" height="122.71689622133" viewBox="32.599998474121094 73.19999694824219 143.13922119140625 56.30000305175781" style="enable-background:new 0 0 200 200;" xml:space="preserve" class="style-removed" preserveAspectRatio="none" data-parent="shape_KNAY7GUCmH">

<polygon points="74,80.8 94.6,76.3 78.7,94.6 62.8,94.6 " fill-rule="evenodd" clip-rule="evenodd" fill="#231815" stroke-width="0"></polygon>
<polygon points="113.2,89.4 91.8,78.5 94.6,76.3 " fill-rule="evenodd" clip-rule="evenodd" fill="#231815" stroke-width="0"></polygon>
<polygon points="67.2,76.1 53.8,73.2 64.2,85.1 74.5,85.1 " fill-rule="evenodd" clip-rule="evenodd" fill="#231815" stroke-width="0"></polygon>
<polygon points="38.2,87.9 55.6,74.7 53.8,73.2 " fill-rule="evenodd" clip-rule="evenodd" fill="#231815" stroke-width="0"></polygon>
<rect x="89.7" y="87.9" width="7.7" height="1.5" fill-rule="evenodd" clip-rule="evenodd" fill="#231815" stroke-width="0"></rect>
<rect x="87.3" y="90.3" transform="matrix(6.123234e-17 -1 1 6.123234e-17 -0.5921 182.2398)" width="7" height="2.3" fill-rule="evenodd" clip-rule="evenodd" fill="#231815" stroke-width="0"></rect>
<rect x="54.8" y="97.2" width="5.2" height="1" fill-rule="evenodd" clip-rule="evenodd" fill="#231815" stroke-width="0"></rect>
<rect x="53.2" y="98.9" transform="matrix(6.123234e-17 -1 1 6.123234e-17 -44.0078 155.2311)" width="4.8" height="1.5" fill-rule="evenodd" clip-rule="evenodd" fill="#231815" stroke-width="0"></rect>
<path d="M32.6,89.4c3.7-1,7.4-1.9,11.1-2.7c1.9-0.4,3.7-0.8,5.6-1.1c1.9-0.4,3.7-0.7,5.6-1.1l1.5-0.3L56,85.7
	c-0.6,2-1.4,3.9-2.3,5.8c-0.9,1.8-2,3.6-3.4,5.2c-1.3,1.6-3,3-4.8,4c-0.9,0.5-1.9,0.8-3,1c-1,0.2-2.1,0.2-3.1,0.1
	c1-0.1,2-0.3,2.9-0.6c0.9-0.3,1.8-0.8,2.6-1.3c0.8-0.5,1.6-1.2,2.2-1.9c0.7-0.7,1.3-1.4,1.9-2.2c1.1-1.6,2.1-3.3,2.9-5.1
	c0.8-1.8,1.5-3.7,2.1-5.5l1.1,1.2c-1.9,0.3-3.7,0.7-5.6,0.9c-1.9,0.3-3.8,0.6-5.6,0.8C40.2,88.7,36.4,89.1,32.6,89.4z" fill="#231815" stroke-width="0"></path>
<path d="M55.1,85.4c1,0.5,1.8,1.1,2.7,1.7c0.7,0.8,1.3,1.5,2,2.3c1.3,1.5,2.7,3,4.1,4.5c1.4,1.5,2.8,3,4.2,4.4l2.1,2.2
	c0.5,0.9,1,1.8,1.5,2.8c-1-0.5-1.9-1-2.8-1.5l-2.1-2.2c-1.4-1.5-2.8-3-4.2-4.4c-1.4-1.5-2.8-3-4.1-4.5l-2-2.3
	C55.9,87.4,55.4,86.5,55.1,85.4z" fill="#231815" stroke-width="0"></path>
<path d="M108.4,89.4c0.3,1.5,0.5,3,0.8,4.5l0,4.5v8.9v8.9v4.5c-0.2,1.5-0.4,3-0.7,4.5c-0.3-1.5-0.5-3-0.7-4.5v-4.5v-8.9
	v-8.9l0-4.5C107.9,92.4,108.1,90.9,108.4,89.4z" fill="#231815" stroke-width="0"></path>
<path d="M135.7,117.6c-0.5,0.2-0.9,0.4-1.3,0.7c-0.4,0.3-0.8,0.6-0.8,1c0,0.3,0.5,0.6,0.9,0.8c0.4,0.2,0.9,0.3,1.4,0.5
	c1.9,0.5,3.9,0.7,5.9,0.8c4,0.2,8,0.3,12.1,0.3c4,0,8.1-0.1,12.1-0.3c2-0.1,4-0.3,6-0.5c1-0.2,2-0.3,2.8-0.7
	c0.2-0.1,0.3-0.2,0.4-0.4c0.1-0.2,0.1-0.4,0-0.5c-0.2-0.3-0.8-0.5-1.2-0.6c0.5,0,1.1-0.1,1.5,0.4c0.2,0.2,0.3,0.6,0.2,0.9
	c0,0.3-0.3,0.6-0.5,0.8c-0.9,0.6-2,0.8-3,1.1c-2,0.5-4,0.7-6,0.9c-4,0.4-8.1,0.5-12.2,0.5c-4.1,0-8.1-0.2-12.2-0.6
	c-2-0.2-4.1-0.5-6-1.2c-0.5-0.2-1-0.4-1.4-0.7c-0.2-0.1-0.5-0.3-0.7-0.5c-0.2-0.2-0.4-0.5-0.4-0.8c0-0.3,0.2-0.6,0.4-0.8
	c0.2-0.2,0.4-0.3,0.7-0.4C134.7,117.9,135.2,117.7,135.7,117.6z" fill="#231815" stroke-width="0"></path>
<g>
	<path d="M146.7,115.6c2.6,0,4.7,2.1,4.7,4.7c0,0.6-0.1,1.2-0.3,1.7h12.2l-1.7-4.3c-0.8-1.3-2.3-2.2-3.9-2.2H146.7z" fill-rule="evenodd" clip-rule="evenodd" fill="#231815" stroke-width="0"></path>
</g>
<path d="M110.2,115.6c2.7-0.4,5.5-0.5,8.2-0.6l0.2,0l0.2,0.1c1.6,1.1,3.3,2.2,4.9,3.4c1.6,1.2,3.2,2.3,4.8,3.5
	c3.2,2.4,6.3,4.8,9.2,7.5c-3.5-2-6.8-4.1-10-6.4c-1.6-1.1-3.2-2.3-4.8-3.4c-1.6-1.2-3.2-2.3-4.8-3.5l0.4,0.1
	C115.7,116.1,112.9,115.9,110.2,115.6z" fill="#231815" stroke-width="0"></path>
</svg></g>
        </g><g id="shape_TGv9jyl6dh" class="" ref="shape_TGv9jyl6dh" key="shape_TGv9jyl6dh" transform="translate(286,246.39074707031) rotate(0,14.5,14.5) scale(1,1)" style="cursor:move;display:inline;opacity:1;" filter="">
            <g style="display:inline"><rect fill="rgba(0,0,0,0)" width="49" height="49" x="-10" y="-10"></rect><svg version="1.1" id="图层_1" xmlns="http://www.w3.org/2000/svg" xmlns:xlink="http://www.w3.org/1999/xlink" x="0px" y="0px" viewBox="0 0 283.465 283.465" style="enable-background:new 0 0 283.465 283.465;" xml:space="preserve" width="29" height="29" class="style-removed" preserveAspectRatio="none" data-parent="shape_TGv9jyl6dh">
<path d="M220.03,236.073c-0.366,1.421,0.39,3.06,1.326,4.609c-0.983,1.554-1.772,3.24-3.008,4.633
	c-1.302,1.468-2.97,2.723-4.59,3.953c-1.321,1.003-3.093,1.63-4.177,2.77c-3.773,3.972-7.726,7.726-12.739,10.577
	c-1.131,0.641-2.053,1.587-2.993,2.456c-4.39,4.053-9.636,6.98-15.571,9.052c-1.449,0.504-3.549,0.808-1.953,2.884
	c-0.984,0.551-2.243,0.879-2.732,1.601c-1.972,2.903-5.521,3.127-8.529,3.317c-6.709,0.423-13.475,0.147-20.217,0.219
	c-1.183,0.01-2.366,0.304-3.212,0.423c-1.62-0.637-2.998-1.368-4.5-1.72c-1.848-0.432-3.787-0.618-5.702-0.77
	c-1.582-0.128-2.794-0.58-3.92-1.634c-2.856-2.675-7.118-3.397-10.468-5.388c-3.649-2.171-8.239-2.081-12.111-4.68
	c0.138-1.045-0.632-1.687-2.694-2.423c-1.592-0.57-2.713-2.124-4.02-3.739c-1.511-0.47-3.008-1.06-4.41-2
	c0.138-1.045-0.637-1.687-2.694-2.423c-2.1-0.751-3.383-3.217-5.35-5.269c-0.394,0.09-1.017,0.238-1.468,0.342
	c-2.765-4.02-5.027-8.272-8.325-11.798c-2.485-2.656-3.972-5.659-5.754-8.538c-1.235-1.996-0.969-4.647-2.005-6.78
	c-4.59-9.479-4.466-19.201-3.017-28.998c-1.383-6.647-2.347-13.333-1.924-20.17c0.043-0.641-0.313-1.307-0.504-1.962h4.41
	c0.076-3.982,0.147-7.807,0.238-12.544c-3.093-2.609-4.338-7.051-5.383-11.513c-0.333-1.406-0.266-3.084,0.342-4.4
	c1.083-2.338,0.352-3.887-1.682-5.521c-3.516-2.818-3.431-3.269-0.152-6.424c0.328-0.314,0.551-0.77,0.955-0.946
	c5.032-2.238,5.493-6.533,6.795-10.487c0.565-1.725,1.663-3.317,2.266-5.032c0.841-2.409,1.72-4.847-1.749-6.595
	c-0.832-0.423-1.045-1.72-1.539-2.618c0.233-0.209,0.466-0.423,0.703-0.637c2.228,0.613,4.414,1.544,6.695,1.744
	c1.587,0.142,3.027,0.328,4.362,0.836c0.181,0.066,0.356,0.138,0.532,0.219c0.161-0.257,0.318-0.518,0.47-0.756
	c-0.171-0.076-0.342-0.152-0.508-0.233c-1.492-0.675-2.879-1.311-4.286-1.92c-1.212-0.527-1.231-1.549-1.511-2.456
	c-0.152-0.489-0.043-1.064-0.309-1.487c-0.314-0.489-1.093-0.789-1.345-1.288c-0.736-1.468-1.307-2.998-2.072-4.799
	c0.998,0.171,1.682,0.285,2.514,0.428c0.171-1.896-2.794-1.82-2.889-3.606c0.599-0.095,1.283-0.209,1.858-0.299
	c0.161-0.271,0.342-0.437,0.299-0.532c-0.399-0.841-0.703-1.596,0.123-2.466c0.356-0.375,0.147-1.117,0.233-1.687
	c0.081-0.494,0.038-1.098,0.361-1.444c0.532-0.57,1.592-0.988,1.022-1.824c-0.67-0.988-0.651-2.366-2.191-2.917
	c-0.442-0.157-1.131-0.499-1.131-0.756c0.01-1.767-1.297-2.794-3.065-3.768c0.765-0.461,1.311-0.784,2.019-1.207
	c-0.39-1.283-0.105-2.514,1.259-3.483c0.969-0.689,1.002-1.502,0.195-2.347c-0.542-0.565-1.026-1.169-1.53-1.744
	c2.171-1.463,3.606-3.088,4.362-5.36c0.589-1.782,0.371-3.226-0.28-4.851c-0.489-1.235-1.44-2.713,0.846-3.549
	c0.328-1.506,0.812-3.008,0.893-4.519c0.029-0.537-0.789-1.036-0.024-1.734c0.865-0.798,1.378,0.485,2.295,0.029
	c1.81-1.235,0.523-3.288,1.35-5.022c2.119-0.043,2.737-1.734,3.948-2.798c1.122-0.988,2.095-2,4.067-1.654
	c0.209-0.965,0.38-1.753,0.542-2.509c0.67-0.394,1.478-0.684,1.958-1.197c0.466-0.499,0.603-1.221,0.908-1.882
	c3.839,1.725,4.519-0.019,4.205-3.112c1.007-0.537,1.891-1.026,2.804-1.478c0.356-0.176,0.898-0.447,1.159-0.338
	c2.285,0.941,4.195-0.689,6.353-0.632c0.528,0.014,1.107-0.622,1.611-1.007c0.622-0.48,1.188-1.007,1.806-1.539
	c0.846,0.409,1.497,0.722,2.309,1.116c1.212-2.081,3.639-1.725,5.654-2.209c-3.592-1.673-7.617-1.834-11.651-2.038
	c-0.323-0.014-0.684-0.076-0.95-0.219c-2.784-1.478-5.436-1.302-8.201,0.247c0.751-0.67,1.378-1.506,2.271-1.981
	c1.958-1.041,3.217-2.176,2.832-4.367c-0.119-0.68,0.846-2.029,1.596-2.2c4.267-0.974,8.329-3.511,13.143-1.15
	c1.202,0.594,3.084,0.2,5.217,0.28c-1.786-5.16,2.343-7.066,6.039-9.451c0.793,0.817,1.444,1.839,2.447,2.404
	c0.803,0.451,2.038,0.351,3.084,0.499c0.024-0.851,0.466-1.976-0.014-2.495c-1.24-1.34-1.801-2.57-0.613-4.49
	c1.159,0.195,2.38,0.351,3.578,0.613c6.015,1.316,11.855,3.307,18.236,3.231c1.045-0.014,2.618,0.276,3.05,0.884
	c1.582,2.205,4.3,2.875,6.59,4.162c1.687,0.95,3.421,2.314,4.2,3.839c2.385,4.647,4.842,5.73,10.287,3.934
	c1.15,0.912,2.29,1.824,3.611,2.875c1.582-1.088,2.889-1.991,4.196-2.894c0.195,0.124,0.39,0.252,0.584,0.375
	c-0.679,1.107-1.359,2.209-2.209,3.597c2.209,1.468,4.466,2.808,6.5,4.362c1.915,1.459,3.573,3.15,5.388,4.709
	c1.007,0.86,2.091,1.663,3.16,2.476c0.589,0.447,1.573,0.76,1.777,1.297c1.088,2.856,3.188,3.706,6.31,2.152
	c2.038,2.951,3.83,5.251,1.853,8.472c-1.577,2.566-0.185,3.692,3.668,3.53c0.252-0.01,0.518,0.238,1.387,0.66
	c-0.988,0.618-1.706,1.164-2.523,1.563c-3.597,1.754-3.739,3.226-0.375,5.122c1.226,0.694,2.651,1.135,3.839,1.863
	c2.727,1.658,2.898,2.946,0.86,6.205c-0.983-0.955-1.882-1.829-2.818-2.737c-2.623,2.932-2.48,3.578,1.953,10.116
	c-0.713,1.62-1.601,3.074-1.967,4.619c-0.409,1.725,1.235,2.68,2.571,3.754c0.632,0.513,0.87,1.425,1.135,2.195
	c0.181,0.518-0.157,1.245,0.162,1.63c2.447,3.017,2.228,5.821-0.437,8.681c-0.475,0.509-0.503,1.844-0.047,2.352
	c3.217,3.583,1.022,7.141,0.071,10.648c-1.454,5.383-3.378,10.681-4.633,16.093c-0.356,1.544,0.542,3.545,1.535,5.008
	c2.466,3.64,2.552,7.355-0.508,10.553c-1.34,1.406-1.639,2.765-0.375,4.139c1.606,1.744,1.824,3.687,2.224,5.773
	c0.333,1.744,2.072,3.345,3.393,4.889c1.701,2,4.11,3.725,2.917,6.557c-0.337,0.223-0.58,0.523-0.846,0.542
	c-5.569,0.394-6.087,0.675-6.647,5.303c-0.48,4.001-1.003,7.93-2.651,11.769c-0.49,1.145-0.779,2.295-0.836,3.435
	c3.316,3.126,6.685,6.21,8.923,10.068c0.242,0.423,0.504,0.927,0.922,1.174c3.687,2.129,3.782,5.355,4.02,8.738
	c0.247,3.535,1.022,7.061,1.796,10.548c1.202,5.383,0.166,10.61-1.283,15.789C222.587,229.107,220.957,232.519,220.03,236.073z" fill="#C81D1D" stroke-width="0"></path>
</svg></g>
        </g><g id="shape_c5RuZ4J8qG" class="brand_name" ref="shape_c5RuZ4J8qG" key="shape_c5RuZ4J8qG" transform="translate(207.5000333786,-46.496097564699994) rotate(0,302.5,350) scale(1,1)" style="cursor:move;display:inline;opacity:1;" filter="">
            <g style="display:inline"><svg xmlns="http://www.w3.org/2000/svg" version="1.1" xmlns:xlink="http://www.w3.org/1999/xlink" width="1000" height="700" viewBox="0 0 1000 700" preserveAspectRatio="none" data-parent="shape_c5RuZ4J8qG"><rect fill="rgba(0,0,0,0)" width="600" height="100" x="100" y="300"></rect><g data-width="600" transform="translate(100, 0)"><path d="M44.82-77.93L44.82-77.93Q57.62-76.56 57.62-69.63L57.62-69.63L57.62-63.77Q57.81-62.50 59.08-62.50L59.08-62.50L76.95-66.99Q87.40-61.82 92.58-56.05L92.58-56.05L92.58-53.52Q83.30-32.81 75.49-32.81L75.49-32.81Q73.44-33.20 69.73-36.04L69.73-36.04L56.93-36.04L56.93-8.30Q56.93-1.86 49.02 3.91L49.02 3.91L46.97 3.91Q44.14 3.91 40.53-7.71L40.53-7.71Q41.89-20.31 41.89-27.73L41.89-27.73Q41.50-34.18 39.75-34.18L39.75-34.18Q27.25-34.18 24.80-29.00L24.80-29.00Q24.80-28.03 20.51-25.10L20.51-25.10Q13.09-31.84 12.70-36.72L12.70-36.72L12.70-44.43Q12.70-49.02 9.08-52.83L9.08-52.83L9.08-54.10Q9.08-54.88 14.06-58.59L14.06-58.59Q17.68-56.74 19.82-56.74L19.82-56.74Q36.82-58.59 41.89-59.96L41.89-59.96L41.89-65.72Q41.89-68.65 37.60-72.85L37.60-72.85Q38.28-74.41 44.82-77.93ZM56.93-53.52L56.93-53.52L56.93-45.12L59.77-45.12Q69.73-45.12 69.73-49.61L69.73-49.61L69.73-54.10Q69.73-55.37 68.36-55.37L68.36-55.37L61.23-55.37Q56.93-54.98 56.93-53.52ZM26.17-49.61L26.17-49.61L26.17-48.34Q26.17-45.02 27.64-40.63L27.64-40.63Q41.89-40.63 41.89-47.07L41.89-47.07L42.68-49.61L41.89-51.56L34.38-51.07Q28.81-49.61 26.17-49.61Z" transform="translate(0 387) " fill="rgb(0, 0, 0)" stroke="rgb(0, 0, 0)" stroke-width="0.167" data-glyph-w="100" data-glyph-h="97.65625" data-glyph-ascender="85.9375" data-glyph-descender="-11.71875"></path><path d="M83.50-76.07L83.50-76.07Q94.63-70.31 94.63-67.77L94.63-67.77Q93.65-64.94 91.11-63.67L91.11-63.67Q81.05-65.04 80.08-65.04L80.08-65.04L74.51-65.04Q74.51-61.62 68.95-56.05L68.95-56.05L68.95-54.69L72.46-54.69L82.13-57.42Q86.82-57.42 93.16-48.44L93.16-48.44Q93.16-27.73 84.86-27.73L84.86-27.73Q81.05-31.93 77.93-31.93L77.93-31.93L77.25-30.57Q77.25-27.44 77.93-9.86L77.93-9.86Q75 3.91 66.89 3.91L66.89 3.91Q65.72 3.71 58.59-9.18L58.59-9.18L54.88-7.81Q52.15-6.35 49.61-6.35L49.61-6.35Q46.88-7.23 46.88-13.28L46.88-13.28Q46.88-16.21 54.49-23.73L54.49-23.73L54.49-25.10Q54.49-27.25 52.34-31.25L52.34-31.25L53.03-32.62L53.03-40.92L52.34-49.12L50.29-49.12L50.29-48.44Q50.29-18.16 31.64 1.17L31.64 1.17Q30.27 1.17 26.76 3.91L26.76 3.91L19.82 3.91Q14.65 3.91 9.47-10.55L9.47-10.55L9.47-11.91Q23.63-30.18 26.76-42.97L26.76-42.97L27.44-42.97Q28.81-42.68 28.81-41.60L28.81-41.60Q25.59-30.27 23.34-0.98L23.34-0.98L24.02-0.98Q39.26-20.90 39.26-53.32L39.26-53.32L39.26-58.89Q39.26-62.79 36.43-66.41L36.43-66.41L36.43-67.77Q39.26-71.88 43.36-71.88L43.36-71.88Q67.09-71.88 83.50-76.07ZM21.19-74.90L21.19-74.90Q26.46-74.90 30.96-66.70L30.96-66.70Q30.96-60.16 23.34-56.93L23.34-56.93Q18.65-56.93 10.84-72.85L10.84-72.85L11.52-72.85Q17.19-74.90 21.19-74.90ZM50.98-61.62L50.98-54.69L51.66-54.69L55.86-55.37L58.59-54.00Q62.01-58.89 62.01-65.04L62.01-65.04Q61.33-65.04 61.33-65.82L61.33-65.82Q50.98-65.82 50.98-61.62L50.98-61.62ZM64.84-49.12L64.84-49.12L62.01-49.12L62.01-44.43L63.48-44.43Q66.21-44.43 75.88-46.39L75.88-46.39Q77.15-45.80 78.71-45.80L78.71-45.80L79.39-47.07L79.39-48.44Q79.39-49.41 77.25-50.49L77.25-50.49Q70.41-49.12 64.84-49.12ZM12.89-51.56L12.89-51.56Q21.19-47.75 21.19-42.48L21.19-42.48Q21.19-39.06 14.36-35.55L14.36-35.55L1.86-46.68Q1.86-48.34 12.89-51.56ZM62.01-38.18L62.01-38.18L62.01-37.50Q62.01-36.52 64.16-35.35L64.16-35.35Q79.39-35.35 79.39-38.18L79.39-38.18L79.39-38.87L77.93-40.92Q62.01-40.23 62.01-38.18ZM59.96-22.36L59.96-22.36L60.45-20.90Q60.45-20.21 60.64-18.16L60.64-18.16Q60.06-15.43 59.28-10.55L59.28-10.55L59.28-9.18L64.16-9.18Q65.53-9.18 65.53-10.55L65.53-10.55Q64.84-22.17 64.84-28.42L64.84-28.42Q64.84-29.88 63.48-29.88L63.48-29.88L62.79-29.88Q61.04-29.88 59.96-22.36ZM79.39-25.78L79.39-26.37L80.08-26.37Q94.53-26.37 99.41-11.91L99.41-11.91L99.41-10.55Q99.41-6.64 93.85-3.71L93.85-3.71Q88.48-3.71 86.33-16.11L86.33-16.11Q83.40-21.00 79.39-25.78L79.39-25.78Z" transform="translate(100 387) " fill="rgb(0, 0, 0)" stroke="rgb(0, 0, 0)" stroke-width="0.167" data-glyph-w="100" data-glyph-h="97.65625" data-glyph-ascender="85.9375" data-glyph-descender="-11.71875"></path><path d="M61.13-78.03L61.13-78.03Q70.31-75.49 70.31-69.53L70.31-69.53Q70.31-68.95 71.00-68.95L71.00-68.95L72.17-68.95Q72.75-68.95 77.05-70.12L77.05-70.12Q80.57-70.12 86.33-62.70L86.33-62.70Q84.67-58.98 82.62-58.20L82.62-58.20Q74.32-58.79 70.31-58.79L70.31-58.79Q69.14-55.96 69.14-50.29L69.14-50.29L69.73-50.29Q76.66-50.29 89.55-55.96L89.55-55.96Q100.10-52.15 100.10-46.58L100.10-46.58Q98.73-43.16 93.95-43.16L93.95-43.16Q90.92-43.75 87.70-44.04L87.70-44.04L84.08-44.04Q82.81-43.85 82.81-42.87L82.81-42.87L82.81-37.21L83.40-37.21Q84.47-37.21 87.11-38.38L87.11-38.38Q91.21-38.38 97.56-29.30L97.56-29.30L97.56-28.71Q97.56-26.27 93.85-25.39L93.85-25.39Q87.89-27.05 84.08-27.05L84.08-27.05L83.40-25.88L83.40-20.21L84.08-8.40Q78.81 3.32 70.51 3.32L70.51 3.32Q66.21 3.32 60.16-7.42L60.16-7.42Q59.47-7.42 59.47-8.01L59.47-8.01L59.47-9.08Q68.46-11.13 68.46-13.09L68.46-13.09Q69.34-19.43 69.34-24.80L69.34-24.80L69.34-26.46Q69.34-27.34 67.48-28.22L67.48-28.22Q48.44-26.66 48.44-25.39L48.44-25.39Q41.11-27.83 41.11-32.13L41.11-32.13L68.75-37.40L68.75-43.46L60.16-43.46Q51.27-41.80 47.27-41.80L47.27-41.80Q40.14-49.90 39.84-49.90L39.84-49.90L39.26-49.90L38.67-47.07L38.67-39.16Q38.67-30.76 39.26-24.41L39.26-24.41Q38.18 2.64 31.93 3.32L31.93 3.32Q31.25 3.32 30.08 3.91L30.08 3.91Q26.95 3.91 21.48-12.50L21.48-12.50L21.48-13.67Q27.64-14.94 27.64-15.92L27.64-15.92Q27.64-17.38 26.95-31.25L26.95-31.25L25.78-31.25Q15.43-15.82 11.04-10.84L11.04-10.84Q3.03-11.72 3.03-19.34L3.03-19.34L3.03-21.00Q3.03-23.14 25.78-41.99L25.78-41.99L25.78-46.48Q25.78-47.66 23.93-47.66L23.93-47.66Q17.58-47.66 12.89-36.91L12.89-36.91Q7.32-32.42 0.59-31.25L0.59-31.25Q0.59-31.74 0-31.74L0-31.74Q9.86-48.24 9.86-56.74L9.86-56.74Q9.86-58.01 8.01-60.06L8.01-60.06L8.01-61.23Q8.01-62.01 11.62-64.65L11.62-64.65L12.89-64.65Q21.48-61.04 21.48-54.98L21.48-54.98L24.51-54.98Q25.78-54.98 25.78-56.15L25.78-56.15L25.78-57.23Q25.78-58.50 25.20-59.57L25.20-59.57Q25.78-60.64 25.78-61.23L25.78-61.23Q25.78-69.73 22.07-69.73L22.07-69.73L22.07-70.90Q25.98-75.39 29.49-75.39L29.49-75.39Q38.67-72.46 38.67-69.14L38.67-69.14Q39.26-68.16 39.26-66.89L39.26-66.89Q38.67-62.11 38.67-57.03L38.67-57.03Q48.44-55.47 48.44-49.12L48.44-49.12L49.12-49.12L56.25-49.71L56.25-55.57Q45.80-60.94 45.80-62.70L45.80-62.70L45.80-63.28Q54.69-65.43 54.98-66.70L54.98-66.70L54.98-70.70L53.81-74.61Q58.69-78.03 61.13-78.03ZM55.86-24.80L55.86-24.80Q60.94-24.80 63.18-17.97L63.18-17.97Q61.04-11.72 56.45-11.72L56.45-11.72L49.71-21.39Q49.71-22.95 55.86-24.80Z" transform="translate(200 387) " fill="rgb(0, 0, 0)" stroke="rgb(0, 0, 0)" stroke-width="0.167" data-glyph-w="100" data-glyph-h="97.65625" data-glyph-ascender="85.9375" data-glyph-descender="-11.71875"></path><path d="M33.30-78.03L33.30-78.03Q42.29-78.03 47.17-70.80L47.17-70.80Q57.71-71.39 61.72-71.39L61.72-71.39Q63.87-72.95 67.29-74.41L67.29-74.41Q77.54-71.39 79.79-66.60L79.79-66.60Q79.79-65.23 63.87-55.18L63.87-55.18L63.87-54.59L73.54-55.76Q78.22-55.76 83.98-50.39L83.98-50.39Q81.15-39.45 81.15-35.35L81.15-35.35L81.15-31.74Q81.15-27.15 74.22-26.37L74.22-26.37L67.29-26.37Q45.02-26.37 33.98-24.51L33.98-24.51L33.98-22.75Q33.98-13.38 50.68-12.50L50.68-12.50L60.35-12.50Q87.40-12.50 91.60-27.54L91.60-27.54Q92.29-31.15 93.65-31.15L93.65-31.15L94.34-31.15L94.34-29.98Q94.34-25.29 99.90-10.16L99.90-10.16L99.90-9.47Q99.90 0.10 67.97 0.10L67.97 0.10Q32.32-1.86 29.10-5.96L29.10-5.96Q20.80-9.67 20.80-20.31L20.80-20.31Q21.48-37.89 21.48-42.58L21.48-42.58L20.12-43.16L14.84-40.92Q2.54-37.79 0-37.79L0-37.79Q0-38.87 17.09-53.61L17.09-53.61Q28.91-65.23 30.57-73.83L30.57-73.83L30.57-77.44Q31.74-78.03 33.30-78.03ZM32.62-53.42L32.62-53.42L32.62-52.15Q42.87-52.83 46.48-52.83L46.48-52.83Q56.25-61.62 56.25-65.43L56.25-65.43L56.25-66.02L54.79-66.02Q44.82-66.02 42.29-61.82L42.29-61.82Q32.62-53.71 32.62-53.42ZM32.62-45.02L32.62-45.02L32.62-36.52Q32.62-33.98 33.98-31.74L33.98-31.74L44.43-32.91L44.43-34.77Q44.43-36.23 44.63-40.53L44.63-40.53Q44.43-47.36 43.07-47.36L43.07-47.36L41.60-47.36Q32.62-46.97 32.62-45.02ZM64.55-46.78L56.93-46.78L56.93-38.38Q56.93-33.89 58.98-33.59L58.98-33.59L61.04-33.59Q64.75-33.59 65.92-35.94L65.92-35.94L65.92-45.61Q65.92-46.78 64.55-46.78L64.55-46.78Z" transform="translate(300 387) " fill="rgb(0, 0, 0)" stroke="rgb(0, 0, 0)" stroke-width="0.167" data-glyph-w="100" data-glyph-h="97.65625" data-glyph-ascender="85.9375" data-glyph-descender="-11.71875"></path><path d="M39.36-76.86L39.36-76.86L42.48-77.34Q54.88-73.24 57.32-67.58L57.32-67.58L57.03-57.71Q57.32-41.21 58.69-20.51L58.69-20.51Q58.50-0.59 42.48 3.91L42.48 3.91L39.84 3.91Q38.96 3.91 34.47-5.57L34.47-5.57L34.47-7.91Q39.84-10.74 39.84-20.51L39.84-20.51L39.84-49.71Q39.36-65.92 35.84-68.65L35.84-68.65Q35.94-73.93 39.36-76.86ZM65.72-55.27L68.36-56.84Q98.83-47.56 98.83-30.76L98.83-30.76Q98.83-23.34 89.55-20.51L89.55-20.51Q82.91-20.51 76.27-40.23L76.27-40.23Q69.43-50.78 65.72-55.27L65.72-55.27ZM15.23-52.93L15.23-52.93Q23.24-48.44 26.76-43.07L26.76-43.07Q23.24-29.88 9.96-20.51L9.96-20.51Q8.11-18.95 2.64-16.60L2.64-16.60Q0-17.77 0-18.95L0-18.95Q4.00-25.98 8.59-36.04L8.59-36.04L11.33-45.02L11.33-45.80L10.64-51.27Q13.96-52.93 15.23-52.93Z" transform="translate(400 387) " fill="rgb(0, 0, 0)" stroke="rgb(0, 0, 0)" stroke-width="0.167" data-glyph-w="100" data-glyph-h="97.65625" data-glyph-ascender="85.9375" data-glyph-descender="-11.71875"></path><path d="M15.43-78.13L15.43-78.13Q27.25-73.24 27.25-71.58L27.25-71.58L27.25-71.29L23.14-61.72L23.14-60.84Q23.73-60.84 23.73-60.55L23.73-60.55Q31.15-62.60 32.32-62.60L32.32-62.60Q40.33-61.23 40.33-56.15L40.33-56.15Q40.33-53.52 34.96-52.25L34.96-52.25L32.91-52.54Q28.71-52.54 21.68-50.49L21.68-50.49L18.36-51.95Q18.36-51.46 13.96-46.00L13.96-46.00L13.96-45.41L14.26-45.41Q19.73-45.41 29.10-49.32L29.10-49.32Q40.04-46.97 40.04-42.48L40.04-42.48Q40.04-39.36 34.38-37.40L34.38-37.40L28.81-37.40Q28.91-33.59 29.39-33.59L29.39-33.59Q29.69-33.59 29.69-33.20L29.69-33.20Q32.62-34.18 33.50-34.18L33.50-34.18Q41.21-31.05 41.21-27.64L41.21-27.64Q40.43-23.44 34.08-23.44L34.08-23.44L28.81-23.44Q28.22-23.34 28.22-22.85L28.22-22.85L28.22-20.80L27.93-17.19L29.10-17.19Q32.32-17.68 32.32-18.36L32.32-18.36L32.32-19.34Q32.32-19.63 32.03-19.63L32.03-19.63Q32.03-21.68 45.12-21.68L45.12-21.68Q46.88-21.68 46.88-40.63L46.88-40.63Q46.88-45.02 45.70-52.25L45.70-52.25Q47.56-54.88 50.49-54.88L50.49-54.88L50.78-54.88Q52.93-54.88 55.47-53.71L55.47-53.71Q56.64-55.76 56.64-57.32L56.64-57.32L56.64-57.91L45.70-57.32Q43.85-57.32 39.45-62.89L39.45-62.89Q39.26-64.16 38.87-64.16L38.87-64.16Q38.87-65.92 41.21-66.21L41.21-66.21L42.38-66.21Q55.37-66.21 57.91-67.38L57.91-67.38L57.91-68.55Q57.91-70.41 56.93-75.98L56.93-75.98Q58.79-77.93 60.25-78.13L60.25-78.13Q71.48-75.88 71.48-72.46L71.48-72.46Q70.90-69.82 70.90-68.85L70.90-68.85L73.05-68.85Q75-68.85 87.60-72.75L87.60-72.75Q95.31-69.24 95.31-65.33L95.31-65.33Q95.31-62.89 91.41-60.25L91.41-60.25Q87.40-60.55 85.45-60.55L85.45-60.55L76.86-60.55Q67.38-60.55 67.38-55.47L67.38-55.47L67.38-55.18L67.68-55.18Q77.83-57.62 79.20-57.62L79.20-57.62Q83.50-56.45 88.77-49.32L88.77-49.32Q87.89-25.39 87.89-24.90L87.89-24.90Q88.57-24.32 89.06-24.32L89.06-24.32L95.02-25.78Q100-21.29 100-19.63L100-19.63Q97.56-16.60 95.31-15.72L95.31-15.72Q81.74-16.02 76.27-16.02L76.27-16.02Q68.36-16.02 59.96-15.43L59.96-15.43L59.96-15.14Q63.48-11.62 63.48-10.06L63.48-10.06Q47.17 3.22 44.24 3.22L44.24 3.22Q37.50 3.91 35.94 3.91L35.94 3.91Q34.08 3.52 34.08 2.93L34.08 2.93L34.08 2.34Q42.77-1.46 42.77-4.20L42.77-4.20Q48.05-11.72 48.05-14.55L48.05-14.55L47.75-14.55L36.82-12.79Q35.35-13.09 34.38-13.96L34.38-13.96L33.79-13.96Q21.39 0.78 13.96 3.91L13.96 3.91Q11.72 3.32 7.71-6.84L7.71-6.84L7.71-7.71Q15.14-11.33 15.14-15.14L15.14-15.14Q15.43-19.14 15.43-20.80L15.43-20.80L15.14-20.80Q14.36-20.80 11.52-19.92L11.52-19.92Q7.71-19.92 4.98-28.22L4.98-28.22Q4.98-29.98 14.26-30.27L14.26-30.27Q16.31-30.57 16.31-32.32L16.31-32.32Q16.11-35.64 15.43-35.64L15.43-35.64Q14.16-35.64 12.11-34.77L12.11-34.77Q10.16-34.77 6.54-40.04L6.54-40.04L0.88-37.70L0-37.70L0-38.57Q11.82-55.57 11.82-72.46L11.82-72.46Q11.52-73.54 10.35-75.10L10.35-75.10L10.35-75.98Q10.35-76.86 15.43-78.13ZM59.67-47.46L59.67-47.46L59.67-45.41L61.13-45.12L61.43-45.12Q68.16-46.00 68.85-46.00L68.85-46.00Q72.46-44.73 72.46-43.36L72.46-43.36Q72.46-41.31 62.01-40.63L62.01-40.63Q59.96-40.63 59.96-38.57L59.96-38.57L59.96-37.99Q60.55-37.99 60.55-37.70L60.55-37.70Q65.82-38.28 70.90-39.45L70.90-39.45Q72.85-38.87 73.34-38.87L73.34-38.87L73.34-39.16Q73.93-47.27 73.93-49.02L73.93-49.02L73.05-49.61L67.09-49.61Q59.67-49.32 59.67-47.46ZM60.55-32.62L60.55-32.62L60.55-30.27Q61.13-30.27 61.13-29.98L61.13-29.98Q63.09-29.98 70.90-32.03L70.90-32.03Q72.85-31.45 73.34-31.45L73.34-31.45L73.34-34.47Q60.55-33.20 60.55-32.62ZM59.96-25.20L59.96-25.20L59.96-22.56Q61.33-22.56 73.05-23.14L73.05-23.14L73.34-23.73L73.34-25.20Q73.34-25.78 72.75-25.78L72.75-25.78L68.55-25.78Q63.96-25.78 59.96-25.20ZM72.46-15.43L72.46-15.43Q93.75-12.79 93.75-2.64L93.75-2.64Q91.89 3.52 86.04 3.52L86.04 3.52Q82.42 3.52 78.32-4.20L78.32-4.20Q73.93-10.55 71.19-13.38L71.19-13.38L71.19-14.26Q71.19-14.55 72.46-15.43Z" transform="translate(500 387) " fill="rgb(0, 0, 0)" stroke="rgb(0, 0, 0)" stroke-width="0.167" data-glyph-w="100" data-glyph-h="97.65625" data-glyph-ascender="85.9375" data-glyph-descender="-11.71875"></path></g></svg></g>
        </g>
  </svg>