<svg viewBox="0 0 1024 1024" xmlns="http://www.w3.org/2000/svg"><defs><style>.cls-1{fill:none;}.cls-2{fill:#fff;}.cls-3{fill:#101129;}.cls-4{fill:#80adff;}.cls-5{fill:#81e6c1;}.cls-6{fill:#ccdeff;}.cls-7{fill:#ffdc8a;}</style></defs><g id="图层_2"><g id="缺省页"><g id="收藏"><rect height="1024" width="1024" class="cls-1"></rect><polygon points="512 144 636.45 351.26 872.03 405.57 713.37 587.98 734.51 828.81 512 734.28 289.49 828.81 310.63 587.98 151.97 405.57 387.55 351.26 512 144" class="cls-2"></polygon><path d="M734.51,832.81a3.94,3.94,0,0,1-1.57-.32L512,738.63,291.06,832.49a4,4,0,0,1-5.55-4l21-239.14L149,408.2a4,4,0,0,1,2.12-6.52L385,347.74l123.58-205.8a4,4,0,0,1,6.86,0L639,347.74l233.91,53.94A4,4,0,0,1,875,408.2L717.5,589.32l21,239.14a4,4,0,0,1-4,4.35ZM512,730.28a4,4,0,0,1,1.56.32l216.38,91.92L709.38,588.33a4,4,0,0,1,1-3L864.64,408,635.55,355.16a4,4,0,0,1-2.53-1.84L512,151.77,391,353.32a4,4,0,0,1-2.53,1.84L159.36,408,313.65,585.36a4,4,0,0,1,1,3L294.06,822.52,510.44,730.6A4,4,0,0,1,512,730.28Z" class="cls-3"></path><path d="M512.45,656.15c-72.24,0-140.6-11.24-201.44-31.27L293.6,823.15l217-92.18a3.57,3.57,0,0,1,2.82,0l217,92.18L713,625.17C652.39,645,584.35,656.15,512.45,656.15Z" class="cls-4"></path><path d="M518.86,395.42l26.86,44.74a16,16,0,0,0,10.12,7.35l50.85,11.73a8,8,0,0,1,4.24,13l-34.25,39.38a16,16,0,0,0-3.86,11.9l4.56,52a8,8,0,0,1-11.1,8.06l-48-20.4a16,16,0,0,0-12.52,0l-48,20.4a8,8,0,0,1-11.1-8.06l4.56-52a16,16,0,0,0-3.86-11.9l-34.25-39.38a8,8,0,0,1,4.24-13l50.85-11.73a16,16,0,0,0,10.12-7.35l26.86-44.74A8,8,0,0,1,518.86,395.42Z" class="cls-5"></path><path d="M569.44,588.25a12.05,12.05,0,0,1-4.72-1l-48-20.4a12,12,0,0,0-9.38,0l-48,20.4a12,12,0,0,1-16.65-12.09l4.57-52a12.1,12.1,0,0,0-2.9-8.93l-34.25-39.37a12,12,0,0,1,6.36-19.57l50.85-11.72a12.09,12.09,0,0,0,7.59-5.52l26.86-44.74a12,12,0,0,1,20.58,0l26.86,44.74a12.06,12.06,0,0,0,7.59,5.52l50.85,11.72A12,12,0,0,1,614,474.91L579.7,514.28a12.1,12.1,0,0,0-2.9,8.93l4.57,52a12,12,0,0,1-11.93,13.06ZM512,557.93a20,20,0,0,1,7.82,1.59l48,20.4a4,4,0,0,0,5.55-4l-4.57-52A20.1,20.1,0,0,1,573.67,509l34.24-39.37a4,4,0,0,0-2.12-6.52L555,451.41a20.08,20.08,0,0,1-12.66-9.19l-26.86-44.74h0a4,4,0,0,0-6.86,0l-26.86,44.74a20.08,20.08,0,0,1-12.66,9.19l-50.84,11.73a4,4,0,0,0-2.12,6.52L450.33,509a20.1,20.1,0,0,1,4.84,14.88l-4.57,52a4,4,0,0,0,5.55,4l48-20.4A20,20,0,0,1,512,557.93Z" class="cls-3"></path><path d="M609.23,94.4l6.34,25.74a8,8,0,0,0,5.86,5.85l25.74,6.34a2,2,0,0,1,0,3.89l-25.74,6.34a8,8,0,0,0-5.86,5.86l-6.34,25.74a2,2,0,0,1-3.88,0L599,148.42a8,8,0,0,0-5.85-5.86l-25.74-6.34a2,2,0,0,1,0-3.89L593.15,126a8,8,0,0,0,5.85-5.85l6.35-25.74A2,2,0,0,1,609.23,94.4Z" class="cls-6"></path><path d="M877.62,611.94l-2,21.28a6.46,6.46,0,0,0,2.92,6l17.93,11.62a1.61,1.61,0,0,1-1,2.95l-21.28-1.94a6.46,6.46,0,0,0-6,2.91l-11.61,17.93a1.61,1.61,0,0,1-3-1l2-21.28a6.43,6.43,0,0,0-2.91-6l-17.93-11.62a1.61,1.61,0,0,1,1-2.95l21.27,1.95a6.47,6.47,0,0,0,6-2.92l11.62-17.93A1.61,1.61,0,0,1,877.62,611.94Z" class="cls-6"></path><path d="M154.36,615.69l16.13,18.46a7.39,7.39,0,0,0,7.29,2.32l23.84-5.7a1.85,1.85,0,0,1,1.64,3.19l-18.45,16.13a7.39,7.39,0,0,0-2.33,7.29l5.71,23.83a1.85,1.85,0,0,1-3.19,1.65l-16.13-18.45a7.4,7.4,0,0,0-7.29-2.33l-23.84,5.7a1.85,1.85,0,0,1-1.65-3.19l18.46-16.13a7.41,7.41,0,0,0,2.33-7.29l-5.71-23.83A1.85,1.85,0,0,1,154.36,615.69Z" class="cls-6"></path><circle r="24" cy="280" cx="152" class="cls-6"></circle><path d="M918.71,284.1c20.78,0,37.68-17.21,37.68-38.36A38.58,38.58,0,0,0,950,224.37a37,37,0,0,0-21-6.52c-.85,0-1.75,0-2.82.11a3.4,3.4,0,0,1-3.36-2,35.37,35.37,0,0,0-5.58-8.54l-1.34.08a3.4,3.4,0,0,1-3.36-2,34,34,0,0,0-2.68-4.77C900.48,194,887.8,190,874.18,190c-28.33,0-51.38,17.21-51.38,38.36a3.45,3.45,0,0,1-3.42,3.48c-20.78,0-37.68,14.08-37.68,31.39a27.08,27.08,0,0,0,4.06,14.15,42.5,42.5,0,0,0,23.34,6.77Z" class="cls-4"></path><path d="M918.71,291.59H905a4,4,0,0,1,0-8h13.7c20.46,0,37.1-17,37.1-37.85s-16.64-37.84-37.1-37.84c-.83,0-1.71,0-2.77.11a4,4,0,0,1-3.94-2.32C905,190.32,885.63,180,863.91,180c-28,0-50.81,17-50.81,37.85a4,4,0,0,1-4,4c-20.46,0-37.1,13.84-37.1,30.87s16.64,30.87,37.1,30.87h68.51a4,4,0,0,1,0,8H809.1c-24.87,0-45.1-17.44-45.1-38.87,0-20.34,18.21-37.07,41.31-38.74,2.52-23.48,27.84-42,58.6-42,23.66,0,45,11.11,54.13,27.9h.67c24.87,0,45.1,20.56,45.1,45.84S943.58,291.59,918.71,291.59Z" class="cls-3"></path><path d="M278.86,220c20.79,0,37.71-19.74,37.71-44a49,49,0,0,0-6.41-24.52,33.87,33.87,0,0,0-21-7.48c-.85,0-1.74,0-2.82.14a3.39,3.39,0,0,1-3.36-2.3,41.72,41.72,0,0,0-5.58-9.8c-.42,0-.86.05-1.35.1a3.39,3.39,0,0,1-3.36-2.3,40.73,40.73,0,0,0-2.68-5.47A56.18,56.18,0,0,0,234.29,112c-28.36,0-51.43,19.74-51.43,44a3.75,3.75,0,0,1-3.43,4c-20.8,0-37.72,16.15-37.72,36a34.5,34.5,0,0,0,4.07,16.23A38.64,38.64,0,0,0,169.14,220Z" class="cls-4"></path><path d="M278.86,228H265.14a4,4,0,0,1,0-8h13.72c20.48,0,37.14-19.74,37.14-44s-16.66-44-37.14-44c-.82,0-1.69,0-2.74.13a4,4,0,0,1-4.05-2.5C265,111.91,245.66,100,224,100c-28,0-50.86,19.74-50.86,44a4,4,0,0,1-4,4C148.66,148,132,164.15,132,184s16.66,36,37.14,36h68.57a4,4,0,1,1,0,8H169.14C144.25,228,124,208.26,124,184c0-23,18.2-41.94,41.3-43.84C167.53,113.27,193,92,224,92c23.82,0,45.27,12.75,54.34,32h.52c24.89,0,45.14,23.33,45.14,52S303.75,228,278.86,228Z" class="cls-3"></path><circle r="32" cy="448" cx="752" class="cls-7"></circle><path d="M752,484a36,36,0,1,1,36-36A36,36,0,0,1,752,484Zm0-64a28,28,0,1,0,28,28A28,28,0,0,0,752,420Z" class="cls-3"></path><path d="M672,772a36,36,0,1,1,36-36A36,36,0,0,1,672,772Zm0-64a28,28,0,1,0,28,28A28,28,0,0,0,672,708Z" class="cls-3"></path><path d="M352,772a36,36,0,1,1,36-36A36,36,0,0,1,352,772Zm0-64a28,28,0,1,0,28,28A28,28,0,0,0,352,708Z" class="cls-3"></path><path d="M448,332a4,4,0,0,1-3.33-6.22l16-24a4,4,0,0,1,6.66,4.44l-16,24A4,4,0,0,1,448,332Z" class="cls-3"></path><path d="M272,436a4,4,0,0,1-1-7.88l104-26a59.89,59.89,0,0,0,35.37-24.93l18.27-27.41a4,4,0,0,1,6.66,4.44l-18.28,27.41A67.83,67.83,0,0,1,377,409.88l-104,26A4.09,4.09,0,0,1,272,436Z" class="cls-3"></path><path d="M794,708a4,4,0,0,1-4-3.43l-9.21-64.49a100.46,100.46,0,0,1,28.28-84.85l46.06-46.06a4,4,0,1,1,5.66,5.66l-46.06,46.06a92.4,92.4,0,0,0-26,78.06L798,703.43a4,4,0,0,1-3.39,4.53A3.82,3.82,0,0,1,794,708Z" class="cls-3"></path></g></g></g></svg>