<svg viewBox="0 0 1024 1024" xmlns="http://www.w3.org/2000/svg"><defs><style>.cls-1{fill:none;}.cls-2{fill:#ccdeff;}.cls-3{fill:#80adff;}.cls-4{fill:#101129;}.cls-5{fill:#fff;}.cls-6{fill:#81e6c1;}.cls-7{fill:#ffdc8a;}</style></defs><g id="图层_2"><g id="缺省页"><g id="搜索无结果"><rect height="1024" width="1024" class="cls-1"></rect><path d="M152.31,782.68l6.35,25.74a8,8,0,0,0,5.85,5.85l25.74,6.34a2,2,0,0,1,0,3.89l-25.74,6.34a8,8,0,0,0-5.85,5.85l-6.35,25.75a2,2,0,0,1-3.88,0l-6.35-25.75a8,8,0,0,0-5.85-5.85l-25.74-6.34a2,2,0,0,1,0-3.89l25.74-6.34a8,8,0,0,0,5.85-5.85l6.35-25.74A2,2,0,0,1,152.31,782.68Z" class="cls-2"></path><path d="M876.62,850.94l-2,21.28a6.46,6.46,0,0,0,2.92,6l17.93,11.62a1.61,1.61,0,0,1-1,2.95l-21.28-1.94a6.46,6.46,0,0,0-6,2.91l-11.61,17.93a1.61,1.61,0,0,1-3-1l2-21.28a6.43,6.43,0,0,0-2.91-6l-17.93-11.62a1.61,1.61,0,0,1,1-2.95l21.27,1.95a6.47,6.47,0,0,0,6-2.92l11.62-17.93A1.61,1.61,0,0,1,876.62,850.94Z" class="cls-2"></path><path d="M606.36,144.69l16.13,18.46a7.39,7.39,0,0,0,7.29,2.32l23.84-5.7a1.85,1.85,0,0,1,1.64,3.19l-18.45,16.13a7.39,7.39,0,0,0-2.33,7.29l5.71,23.83a1.85,1.85,0,0,1-3.19,1.65l-16.13-18.45a7.4,7.4,0,0,0-7.29-2.33l-23.84,5.7a1.85,1.85,0,0,1-1.65-3.19l18.46-16.13a7.41,7.41,0,0,0,2.33-7.29l-5.71-23.83A1.85,1.85,0,0,1,606.36,144.69Z" class="cls-2"></path><circle r="24" cy="600" cx="168" class="cls-2"></circle><path d="M246.23,203.62c20.78,0,37.68-17.21,37.68-38.36a38.58,38.58,0,0,0-6.41-21.37,37,37,0,0,0-21-6.52c-.85,0-1.75,0-2.82.12a3.42,3.42,0,0,1-3.36-2,35.63,35.63,0,0,0-5.57-8.54l-1.35.08a3.4,3.4,0,0,1-3.36-2,34,34,0,0,0-2.68-4.77c-9.37-6.76-22.05-10.78-35.67-10.78-28.33,0-51.38,17.21-51.38,38.36a3.45,3.45,0,0,1-3.42,3.48c-20.78,0-37.68,14.08-37.68,31.39a27.08,27.08,0,0,0,4.06,14.15,42.5,42.5,0,0,0,23.34,6.77Z" class="cls-3"></path><path d="M246.23,211.11h-13.7a4,4,0,1,1,0-8h13.7c20.46,0,37.1-17,37.1-37.85s-16.64-37.84-37.1-37.84c-.83,0-1.71,0-2.77.11a4,4,0,0,1-3.94-2.32c-7-15.37-26.37-25.69-48.09-25.69-28,0-50.81,17-50.81,37.85a4,4,0,0,1-4,4c-20.46,0-37.1,13.84-37.1,30.87s16.64,30.87,37.1,30.87h68.51a4,4,0,0,1,0,8H136.62c-24.87,0-45.1-17.44-45.1-38.87,0-20.34,18.21-37.07,41.31-38.74,2.52-23.48,27.84-42,58.6-42,23.66,0,45,11.11,54.13,27.9h.67c24.87,0,45.1,20.56,45.1,45.84S271.1,211.11,246.23,211.11Z" class="cls-4"></path><path d="M886.73,316.13c20.79,0,37.71-19.74,37.71-44A49.13,49.13,0,0,0,918,247.61a33.87,33.87,0,0,0-21-7.48c-.85,0-1.74,0-2.82.14a3.39,3.39,0,0,1-3.36-2.3,42.07,42.07,0,0,0-5.58-9.8l-1.35.1a3.39,3.39,0,0,1-3.36-2.3,42,42,0,0,0-2.68-5.47,56.18,56.18,0,0,0-35.71-12.37c-28.35,0-51.42,19.74-51.42,44a3.75,3.75,0,0,1-3.43,4c-20.8,0-37.72,16.15-37.72,36a34.5,34.5,0,0,0,4.07,16.23A38.64,38.64,0,0,0,777,316.13Z" class="cls-3"></path><path d="M886.73,324.13H873a4,4,0,0,1,0-8h13.72c20.48,0,37.14-19.74,37.14-44s-16.66-44-37.14-44c-.82,0-1.69,0-2.74.13a4,4,0,0,1-4-2.5c-7.09-17.72-26.41-29.63-48.07-29.63-28,0-50.86,19.74-50.86,44a4,4,0,0,1-4,4c-20.48,0-37.14,16.15-37.14,36s16.66,36,37.14,36h68.57a4,4,0,0,1,0,8H777c-24.89,0-45.14-19.74-45.14-44,0-23,18.2-41.94,41.3-43.84,2.23-26.89,27.71-48.16,58.7-48.16,23.82,0,45.26,12.75,54.34,32h.52c24.89,0,45.14,23.33,45.14,52S911.62,324.13,886.73,324.13Z" class="cls-4"></path><path d="M636,670.79c7.62,18.77,16,27.37,16,27.37,48.9,57.88,180.15,72.35,180.15,72.35,20.59,0,12.87-41-2.57-62.7L476.93,799.44c41.18,57.88,10.3,98.87-30.88,96.46-95.22-7.24-154.41-106.1-154.41-106.1C239,709,265.9,589.65,265.9,589.65,293,468,281.34,428.09,281.34,428.09,253,302.7,153.09,312.34,153.09,312.34L520.68,240c64.89,5.07,99.48,52.72,114.39,80.81" class="cls-5"></path><path d="M449.42,900c-1.19,0-2.39,0-3.6-.11-50.44-3.83-90.62-33-115.45-56.87-26.35-25.28-41.07-49.35-42.12-51.1-27.7-42.55-33.35-95.54-33.22-132.51.15-39.91,6.69-69.4,7-70.64,26.41-118.58,15.61-159.18,15.5-159.58,0-.06,0-.15-.06-.22-11.45-50.73-35.85-85.1-72.53-102.15-27.22-12.66-51.2-10.52-51.43-10.5a4,4,0,0,1-1.16-7.9l367.59-72.34A3.58,3.58,0,0,1,521,236c66.83,5.22,102.37,54.2,117.61,82.93a4,4,0,1,1-7.07,3.75c-14.43-27.2-48-73.52-110.62-78.66l-339,66.73a123.51,123.51,0,0,1,26.43,8.81c26.82,12.47,61.94,41.25,76.93,107.53.86,3.1,11.09,44.45-15.41,163.42a356.5,356.5,0,0,0-6.78,69.1c-.11,35.84,5.34,87.14,32,128l.08.13a270.28,270.28,0,0,0,41,49.66c23.86,22.86,62.36,50.87,110.29,54.51,17.95,1,33.29-6.58,41-20.43,10-18.07,5-43.48-13.64-69.72a4,4,0,0,1,2.26-6.19l223.11-58c-21.67-10.7-38.43-23-50.08-36.74-1.08-1.15-9.25-10.2-16.7-28.55a4,4,0,0,1,7.42-3c7.18,17.69,15.05,26,15.13,26.11l.18.19c13.65,16.16,34.09,28.88,56.31,38.82l117.2-30.46a4,4,0,0,1,4.27,1.55c12.13,17.06,20.28,46.64,13,60.71a14.78,14.78,0,0,1-13.72,8.31l-.44,0a511.2,511.2,0,0,1-72.37-14.59,373.08,373.08,0,0,1-48.81-17l-227,59c17.79,27.2,21.78,53.75,10.87,73.47C485.78,890.76,468.8,900,449.42,900Zm274-160.5c50.29,19.84,104.82,26.53,108.84,27a6.66,6.66,0,0,0,6.39-4c5-9.76-.36-33.86-10.9-50.15Z" class="cls-4"></path><path d="M281.34,428.09a191.54,191.54,0,0,0-17.07-47.57l-91,23.45,5.15,60.29,103.89-30.49C281.77,430,281.34,428.09,281.34,428.09Z" class="cls-3"></path><path d="M178.4,468.26a4,4,0,0,1-4-3.66l-5.15-60.29a4,4,0,0,1,3-4.21l91-23.45a4,4,0,0,1,4.54,2,196.66,196.66,0,0,1,17.43,48.55v0c0,.08.46,2.13,1,6a4,4,0,0,1-2.83,4.39L179.53,468.1A4,4,0,0,1,178.4,468.26ZM177.53,407,182,459l95.83-28.13c-.2-1.21-.35-1.87-.36-2a191.54,191.54,0,0,0-15.27-43.76Z" class="cls-4"></path><path d="M267,386c-30.58-63.69-85.44-72.74-107.42-73.7l-6.93.07C127,316,108.91,344.58,108.91,344.58c-25.73,35.28-5.14,81.1-5.14,81.1,30.88,55.46,84.92,36.17,84.92,36.17,48.9-24.12,18-62.7,18-62.7Z" class="cls-6"></path><path d="M166.77,469.1a78.59,78.59,0,0,1-9.44-.57c-16.77-2-40.29-10.79-57.06-40.91l-.15-.3c-.88-2-21.2-48.28,5.49-85,1.5-2.34,19.89-30.16,46.49-33.95a4.55,4.55,0,0,1,.52,0l6.93-.07h.21c22.84,1,79.37,10.4,110.86,76a4,4,0,0,1,0,3.48,4,4,0,0,1-2.74,2.16l-54.6,11.93c3.85,6.61,9.16,18.77,6.2,32.09-2.85,12.84-12.61,23.45-29,31.54l-.42.18A75.16,75.16,0,0,1,166.77,469.1Zm-59.42-45.2c12.09,21.6,29.12,33.93,50.63,36.65a71.36,71.36,0,0,0,29.18-2.41c13.94-6.92,22.18-15.65,24.49-25.93,3.53-15.72-8-30.42-8.07-30.56a4,4,0,0,1,2.27-6.41l55.29-12.08c-29.93-57.47-80.69-66-101.62-66.89l-6.54.07c-23.37,3.5-40.52,30.11-40.69,30.38a1.64,1.64,0,0,1-.14.22C88.74,379,106.17,421.14,107.35,423.9Z" class="cls-4"></path><path d="M476.93,798.92S801.2,698.16,819.22,693.34c0,0,41.17,31.35,25.73,77.17l-380.89,123S520.68,857.32,476.93,798.92Z" class="cls-3"></path><path d="M464.06,897.49a4,4,0,0,1-2.15-7.37c.22-.14,22.42-14.67,26.84-39.2,2.85-15.81-2.21-32.5-15-49.6a4,4,0,0,1,2-6.22C489,791,800.29,694.27,818.18,689.48a4,4,0,0,1,3.46.68,89.72,89.72,0,0,1,19.64,22.48c11.59,18.8,14.17,39.25,7.46,59.14a4,4,0,0,1-2.56,2.53l-380.89,123A4,4,0,0,1,464.06,897.49ZM483.4,801.1c11.79,17.43,16.23,34.67,13.21,51.32-2.43,13.38-9.25,24-15.82,31.46l361-116.55c5.2-17.09,2.79-34-7.16-50.26a85.2,85.2,0,0,0-16.33-19.31C788.49,706.36,524.29,788.4,483.4,801.1Z" class="cls-4"></path><circle r="176" cy="496" cx="608" class="cls-5"></circle><path d="M608,676c-99.25,0-180-80.75-180-180s80.75-180,180-180,180,80.75,180,180S707.25,676,608,676Zm0-352c-94.84,0-172,77.16-172,172s77.16,172,172,172,172-77.16,172-172S702.84,324,608,324Z" class="cls-4"></path><rect transform="translate(-256.98 780.21) rotate(-45)" rx="16" height="167.42" width="79.2" y="616.6" x="773.71" class="cls-7"></rect><path d="M844.5,784.87A19.86,19.86,0,0,1,830.36,779L734.6,683.26a20,20,0,0,1,0-28.28L768,621.6a20,20,0,0,1,28.28,0L892,717.36a20,20,0,0,1,0,28.28L858.64,779A19.86,19.86,0,0,1,844.5,784.87ZM782.12,623.75a11.91,11.91,0,0,0-8.49,3.51l-33.37,33.37a12,12,0,0,0,0,17L836,773.36a12,12,0,0,0,17,0L886.36,740a12,12,0,0,0,0-17L790.6,627.26A11.89,11.89,0,0,0,782.12,623.75Z" class="cls-4"></path><path d="M719.35,632.29l21.8,21.8,25-25-21.8-21.8A177.5,177.5,0,0,1,719.35,632.29Z" class="cls-6"></path><path d="M741.15,658.09a4,4,0,0,1-2.83-1.17l-21.8-21.8a4,4,0,0,1,.3-5.92,173.21,173.21,0,0,0,24.4-24.41,4,4,0,0,1,5.93-.3l21.8,21.8a4,4,0,0,1,0,5.66l-25,25A4,4,0,0,1,741.15,658.09Zm-15.88-25.54,15.88,15.88,19.31-19.31-15.88-15.88A182.41,182.41,0,0,1,725.27,632.55Z" class="cls-4"></path><path d="M480.19,468a3.88,3.88,0,0,1-1.33-.23,4,4,0,0,1-2.44-5.1,147.63,147.63,0,0,1,71.71-82.22,4,4,0,1,1,3.67,7.1A139.7,139.7,0,0,0,484,465.33,4,4,0,0,1,480.19,468Z" class="cls-4"></path><path d="M584,375.57a4,4,0,0,1-.89-7.9A148.51,148.51,0,0,1,616,364a4,4,0,0,1,0,8,140.87,140.87,0,0,0-31.11,3.47A3.92,3.92,0,0,1,584,375.57Z" class="cls-4"></path></g></g></g></svg>